<svg version="1.1" id="Layer_1" xmlns="http://www.w3.org/2000/svg" xmlns:xlink="http://www.w3.org/1999/xlink" x="0px" y="0px"
	 width="100%" viewBox="0 0 120 120" enable-background="new 0 0 120 120" xml:space="preserve">
<path fill="#E2E3E2" opacity="1.000000" stroke="none" 
	d="
M121.000000,36.000000 
	C121.000000,51.354229 121.000000,66.708458 120.661766,82.529388 
	C119.553940,83.391441 118.784348,83.786781 117.617271,84.115326 
	C109.850349,81.678047 102.480904,79.307564 94.996170,76.664902 
	C94.276138,75.902321 93.671387,75.411919 92.923988,74.651138 
	C92.193672,74.297600 91.606003,74.214432 90.685539,74.070175 
	C89.901581,74.005882 89.450409,74.002686 88.824112,73.723160 
	C87.140617,72.612625 85.632248,71.778435 84.071014,70.617599 
	C83.954514,69.854378 83.890877,69.417809 83.812149,68.734589 
	C83.627411,68.182938 83.375633,67.979561 82.995605,67.563461 
	C81.800964,66.480141 80.652428,65.711189 79.485886,64.692734 
	C79.631012,64.156502 79.794144,63.869770 80.234055,63.650703 
	C80.646049,62.818546 80.781250,61.918728 80.939201,60.761936 
	C80.924461,60.337109 80.886963,60.169262 80.904892,59.637466 
	C81.024513,58.541012 81.088707,57.808502 81.309647,56.972954 
	C81.536629,56.767220 81.680298,56.649479 81.662933,56.564728 
	C81.615936,56.335289 81.500526,56.119865 81.250031,55.840614 
	C81.087807,55.782341 80.832291,56.013786 80.880760,55.647751 
	C80.735321,53.831505 80.541412,52.381302 80.465134,50.639446 
	C80.535774,49.935287 80.488785,49.522781 80.621338,48.947472 
	C80.951805,48.325565 81.102722,47.866459 81.602692,47.346069 
	C83.014290,45.547520 84.076843,43.810253 85.425545,41.842728 
	C85.930313,40.486618 86.244705,39.369823 86.352165,38.233467 
	C87.110977,30.208923 85.101036,27.147266 78.928452,26.674320 
	C78.461853,25.893412 78.095795,25.423323 77.845398,24.539246 
	C77.330750,21.077740 76.700424,18.030224 76.022842,14.607046 
	C74.317055,9.820923 72.658524,5.410462 71.000000,1.000000 
	C74.692909,1.000000 78.385818,1.000000 82.222824,1.321546 
	C88.666481,5.112759 95.685272,7.728874 101.078835,12.273732 
	C107.450134,17.642487 114.187752,23.205877 117.127853,31.731054 
	C117.703636,33.400597 119.673248,34.589443 121.000000,36.000000 
z"/>
<path fill="#0A0A0A" opacity="1.000000" stroke="none" 
	d="
M44.000000,121.000000 
	C42.611111,121.000000 41.222221,121.000000 39.362823,120.682884 
	C37.927715,119.242470 36.963116,118.119179 36.162697,116.691223 
	C38.822777,114.896103 41.277508,113.330772 43.823288,111.931030 
	C48.852612,109.165733 53.932327,106.492096 58.991211,103.780556 
	C58.718380,103.206467 58.445549,102.632378 58.172722,102.058289 
	C54.110535,103.701958 50.048347,105.345619 45.979874,106.641655 
	C45.313934,105.526314 44.654293,104.758606 44.165680,103.679031 
	C49.353176,99.256104 48.021210,93.808044 38.796288,88.584106 
	C34.483982,94.771324 30.180782,100.945473 25.597704,107.521187 
	C23.815592,101.843109 22.430588,97.430275 21.236334,92.725891 
	C28.631981,89.345482 35.836876,86.256638 43.026222,83.542526 
	C43.315414,87.275093 45.780720,87.001732 48.342186,87.021149 
	C48.865082,87.275238 49.023575,87.541267 49.065674,88.222122 
	C50.051670,89.695671 51.019375,90.834633 52.041969,92.333015 
	C55.223289,94.127235 58.219574,96.129440 61.502396,96.882462 
	C69.070137,98.618401 75.723793,95.024323 82.263741,92.000938 
	C85.086281,90.696091 87.631859,88.444130 89.780853,86.136017 
	C91.633438,84.146271 90.395973,82.903412 87.999466,82.667252 
	C89.244209,81.189056 90.360527,79.997231 91.812584,79.052582 
	C92.252945,82.827850 92.051270,86.398643 92.535454,89.873863 
	C93.226341,94.832695 92.057671,96.663147 87.126625,98.043129 
	C85.448441,98.512779 83.398628,99.643471 82.640816,101.068756 
	C79.354538,107.249527 76.879272,113.740570 78.000000,121.000000 
	C70.312424,121.000000 62.624847,121.000000 54.513660,120.656250 
	C57.579800,116.855621 61.165432,113.487961 64.508797,109.894875 
	C65.726509,108.586197 66.367241,106.740646 67.271202,105.140030 
	C66.820900,104.800514 66.370590,104.460991 65.920280,104.121468 
	C59.263000,108.308357 52.537666,112.394028 46.014061,116.779747 
	C44.900337,117.528488 44.649479,119.560715 44.000000,121.000000 
z"/>
<path fill="#E3E3E2" opacity="1.000000" stroke="none" 
	d="
M43.041775,83.167786 
	C35.836876,86.256638 28.631981,89.345482 20.862230,92.706802 
	C17.192560,94.710938 14.087742,96.442604 10.613496,98.085808 
	C8.490860,95.413589 6.823754,92.765274 4.952760,90.269836 
	C3.795502,88.726349 2.328148,87.415359 1.000000,86.000000 
	C1.000000,69.645775 1.000000,53.291546 1.291298,36.780807 
	C2.683062,35.401802 3.783529,34.179302 5.245344,33.011726 
	C7.079492,35.090881 9.097059,36.916706 9.920434,39.177460 
	C12.169209,45.351974 14.081477,51.664249 15.814230,58.007408 
	C17.722393,64.992699 19.259577,72.078773 21.011953,79.107590 
	C21.388832,80.619263 21.995007,82.073753 22.495560,83.554596 
	C23.788652,82.851334 25.090170,82.162956 26.370924,81.437904 
	C26.928686,81.122139 27.476408,80.381859 27.973314,80.428185 
	C33.031803,80.899910 38.078861,81.494171 43.073311,82.329880 
	C43.025589,82.793022 43.033684,82.980408 43.041775,83.167786 
z"/>
<path fill="#0E0F0F" opacity="1.000000" stroke="none" 
	d="
M78.416664,121.000000 
	C76.879272,113.740570 79.354538,107.249527 82.640816,101.068756 
	C83.398628,99.643471 85.448441,98.512779 87.126625,98.043129 
	C92.057671,96.663147 93.226341,94.832695 92.535454,89.873863 
	C92.051270,86.398643 92.252945,82.827850 91.840179,78.736145 
	C91.702171,77.785233 91.872299,77.397934 92.426239,77.019051 
	C93.577202,76.997345 94.344330,76.967209 95.111465,76.937073 
	C102.480904,79.307564 109.850349,81.678047 117.672981,84.463776 
	C118.197342,86.130577 118.752777,87.624275 118.266388,88.597038 
	C111.887367,101.354744 102.119202,110.666786 89.270874,116.849693 
	C87.033058,117.926575 85.082977,119.601372 83.000000,121.000000 
	C81.611107,121.000000 80.222221,121.000000 78.416664,121.000000 
z"/>
<path fill="#000000" opacity="1.000000" stroke="none" 
	d="
M1.000000,86.468658 
	C2.328148,87.415359 3.795502,88.726349 4.952760,90.269836 
	C6.823754,92.765274 8.490860,95.413589 10.668182,98.428757 
	C15.378909,103.067482 19.665522,107.274788 22.638828,110.193085 
	C30.898525,107.794289 37.446590,105.892593 43.994652,103.990898 
	C44.654293,104.758606 45.313934,105.526314 45.650551,106.789169 
	C42.886208,108.191628 40.444885,109.098938 37.648018,110.049026 
	C34.616516,111.662331 31.940556,113.232864 28.778379,115.088753 
	C30.682941,115.944923 31.845322,116.467453 33.381565,116.992004 
	C34.503124,116.994637 35.250820,116.995255 35.998516,116.995880 
	C36.963116,118.119179 37.927715,119.242470 38.946159,120.682884 
	C26.409739,121.000000 13.819475,121.000000 1.000000,121.000000 
	C1.000000,109.646797 1.000000,98.292061 1.000000,86.468658 
z"/>
<path fill="#000000" opacity="1.000000" stroke="none" 
	d="
M4.883995,32.956806 
	C3.783529,34.179302 2.683062,35.401802 1.291298,36.312149 
	C1.000000,24.403706 1.000000,12.807410 1.000000,1.000000 
	C13.353427,1.000000 25.708055,1.000000 38.463486,1.343568 
	C35.898891,4.132704 32.933498,6.578272 29.568308,9.009078 
	C26.508226,8.749902 23.997107,8.819741 22.560921,11.983554 
	C21.501305,13.097602 20.820049,14.179306 19.940084,15.565382 
	C11.770576,18.940960 7.083473,24.867374 4.883995,32.956806 
z"/>
<path fill="#000000" opacity="1.000000" stroke="none" 
	d="
M83.468658,121.000000 
	C85.082977,119.601372 87.033058,117.926575 89.270874,116.849693 
	C102.119202,110.666786 111.887367,101.354744 118.266388,88.597038 
	C118.752777,87.624275 118.197342,86.130577 118.070465,84.530579 
	C118.784348,83.786781 119.553940,83.391441 120.661766,82.998047 
	C121.000000,95.593300 121.000000,108.186592 121.000000,121.000000 
	C108.646645,121.000000 96.291977,121.000000 83.468658,121.000000 
z"/>
<path fill="#000000" opacity="1.000000" stroke="none" 
	d="
M121.000000,35.531342 
	C119.673248,34.589443 117.703636,33.400597 117.127853,31.731054 
	C114.187752,23.205877 107.450134,17.642487 101.078835,12.273732 
	C95.685272,7.728874 88.666481,5.112759 82.683456,1.321546 
	C95.590263,1.000000 108.180527,1.000000 121.000000,1.000000 
	C121.000000,12.353201 121.000000,23.707941 121.000000,35.531342 
z"/>
<path fill="#0B0B08" opacity="1.000000" stroke="none" 
	d="
M29.968102,9.023840 
	C32.933498,6.578272 35.898891,4.132704 38.932144,1.343568 
	C40.388889,1.000000 41.777779,1.000000 43.810524,1.249614 
	C46.360840,2.043425 48.297096,3.134809 50.168369,3.032898 
	C56.721779,2.675994 59.035072,4.678319 58.570236,11.204332 
	C57.717804,11.199490 57.230785,11.268012 56.733826,11.311291 
	C56.723885,11.286047 56.692173,11.242023 56.718735,10.961809 
	C56.490238,10.416922 56.235180,10.152248 55.965752,9.511528 
	C54.901577,8.454532 53.851768,7.773583 52.801960,7.092634 
	C52.197594,8.082686 51.593231,9.072739 50.662415,10.134809 
	C49.267715,10.815192 48.199471,11.423557 46.739403,12.062090 
	C45.565571,12.153188 44.783554,12.214117 43.711655,12.184556 
	C42.934666,12.359022 42.447571,12.623978 41.581047,12.942567 
	C39.033741,13.614532 36.789772,14.051605 34.725971,14.917891 
	C33.449291,15.453778 32.446590,16.642384 31.027260,17.601192 
	C30.208395,17.947273 29.683163,18.230137 29.099422,18.118727 
	C29.349976,14.824250 29.659039,11.924045 29.968102,9.023840 
z"/>
<path fill="#070906" opacity="1.000000" stroke="none" 
	d="
M70.541931,1.000000 
	C72.658524,5.410462 74.317055,9.820923 75.568619,14.604350 
	C72.447105,14.960676 69.732567,14.944036 66.964027,14.585720 
	C64.606689,9.829364 62.303345,5.414681 60.000000,1.000000 
	C63.361286,1.000000 66.722572,1.000000 70.541931,1.000000 
z"/>
<path fill="#101111" opacity="1.000000" stroke="none" 
	d="
M44.454109,121.000000 
	C44.649479,119.560715 44.900337,117.528488 46.014061,116.779747 
	C52.537666,112.394028 59.263000,108.308357 65.920280,104.121468 
	C66.370590,104.460991 66.820900,104.800514 67.271202,105.140030 
	C66.367241,106.740646 65.726509,108.586197 64.508797,109.894875 
	C61.165432,113.487961 57.579800,116.855621 54.045025,120.656250 
	C50.969406,121.000000 47.938812,121.000000 44.454109,121.000000 
z"/>
<path fill="#11120D" opacity="1.000000" stroke="none" 
	d="
M59.533138,1.000000 
	C62.303345,5.414681 64.606689,9.829364 66.919922,14.669680 
	C66.929810,15.095314 66.846176,15.265556 66.475487,15.209517 
	C65.101547,15.084431 64.098289,15.015384 63.001926,14.632133 
	C61.584431,13.304518 60.260040,12.291106 58.935650,11.277696 
	C59.035072,4.678319 56.721779,2.675994 50.168369,3.032898 
	C48.297096,3.134809 46.360840,2.043425 44.227188,1.249614 
	C49.022091,1.000000 54.044186,1.000000 59.533138,1.000000 
z"/>
<path fill="#BA9173" opacity="1.000000" stroke="none" 
	d="
M83.827240,68.981232 
	C83.890877,69.417809 83.954514,69.854378 83.778885,70.840851 
	C83.028168,73.259270 82.516716,75.127808 81.850723,77.326660 
	C80.461906,80.771851 79.227646,83.886711 77.737259,87.007339 
	C77.310295,87.011642 77.139458,87.010193 76.967987,86.623711 
	C75.607491,81.423584 73.150749,76.688538 76.510834,71.638161 
	C76.944046,70.987015 76.098946,69.485382 75.796356,68.040451 
	C76.153488,67.199028 76.560265,66.694878 77.151100,66.086433 
	C77.562065,65.625511 77.788956,65.268875 78.390198,64.803635 
	C79.011002,64.777428 79.257446,64.859825 79.503891,64.942230 
	C80.652428,65.711189 81.800964,66.480141 83.070953,67.783836 
	C83.343422,68.597534 83.555031,68.818420 83.827240,68.981232 
z"/>
<path fill="#AC7556" opacity="1.000000" stroke="none" 
	d="
M79.028992,26.985140 
	C85.101036,27.147266 87.110977,30.208923 86.352165,38.233467 
	C86.244705,39.369823 85.930313,40.486618 84.982193,41.821503 
	C83.055473,42.045826 81.858246,42.061115 80.473755,41.952278 
	C80.064728,41.606613 79.939796,41.339748 80.173538,40.861557 
	C80.639282,40.125481 80.843185,39.555408 81.280197,39.067154 
	C81.891136,39.044453 82.268959,38.939934 82.646774,38.835411 
	C82.128441,38.505646 81.610115,38.175877 81.108643,37.692528 
	C81.125504,37.538940 81.113182,37.230171 81.354729,36.987396 
	C81.080246,35.781807 80.564217,34.818989 79.898865,33.585262 
	C79.257118,32.210072 78.764694,31.105787 78.222641,29.671455 
	C78.122215,28.900366 78.071426,28.459322 78.231956,27.892252 
	C78.704994,27.555721 78.900238,27.295361 79.028992,26.985140 
z"/>
<path fill="#1C1F18" opacity="1.000000" stroke="none" 
	d="
M66.973915,15.011354 
	C69.732567,14.944036 72.447105,14.960676 75.615875,14.980013 
	C76.700424,18.030224 77.330750,21.077740 77.578300,24.403740 
	C76.457558,24.469076 75.719589,24.255926 74.943886,23.692095 
	C72.310204,21.558058 69.714264,19.774704 67.065071,17.650644 
	C66.956612,16.628479 66.901390,15.947018 66.846176,15.265556 
	C66.846176,15.265556 66.929810,15.095314 66.973915,15.011354 
z"/>
<path fill="#28241B" opacity="1.000000" stroke="none" 
	d="
M76.967026,66.190727 
	C76.560265,66.694878 76.153488,67.199028 75.466522,68.090759 
	C74.763214,68.566177 74.340096,68.654015 73.838654,68.440559 
	C73.433334,67.619629 73.106346,67.099998 72.971397,66.292755 
	C73.429665,64.325760 73.695892,62.646362 73.989822,60.554138 
	C74.035950,58.762318 74.054367,57.383320 74.290024,55.922314 
	C74.772560,55.662865 74.971535,55.429001 75.326981,55.143204 
	C75.549767,55.147705 75.991219,55.222816 76.077866,55.539238 
	C77.329681,56.251839 78.494850,56.648018 79.641220,57.394741 
	C79.573181,58.891373 79.523933,60.037453 79.352448,61.612278 
	C79.472557,62.555027 79.714920,63.069035 79.957275,63.583042 
	C79.794144,63.869770 79.631012,64.156502 79.485886,64.692734 
	C79.257446,64.859825 79.011002,64.777428 78.228806,64.608101 
	C77.451050,65.077690 77.209038,65.634209 76.967026,66.190727 
z"/>
<path fill="#7A897F" opacity="1.000000" stroke="none" 
	d="
M74.981621,24.042778 
	C75.719589,24.255926 76.457558,24.469076 77.462631,24.817730 
	C78.095795,25.423323 78.461853,25.893412 78.928452,26.674320 
	C78.900238,27.295361 78.704994,27.555721 77.815048,27.816841 
	C75.779289,27.857851 74.371742,27.848248 72.732498,27.636364 
	C71.687706,27.311337 70.874626,27.188589 69.901146,26.979328 
	C69.740753,26.892817 69.378609,26.878765 69.303162,26.542076 
	C69.157227,25.752235 69.086731,25.299082 69.015564,24.593868 
	C69.026985,24.007687 69.039070,23.673569 69.406403,23.456211 
	C71.501640,23.729572 73.241631,23.886175 74.981621,24.042778 
z"/>
<path fill="#BD9A81" opacity="1.000000" stroke="none" 
	d="
M82.005272,76.996338 
	C82.516716,75.127808 83.028168,73.259270 83.831749,71.167496 
	C85.632248,71.778435 87.140617,72.612625 88.827820,74.049042 
	C89.027626,75.084862 89.048592,75.518456 88.675980,76.020630 
	C86.190018,76.391579 84.097649,76.693954 82.005272,76.996338 
z"/>
<path fill="#5D5345" opacity="1.000000" stroke="none" 
	d="
M79.911682,41.027557 
	C79.939796,41.339748 80.064728,41.606613 80.543266,42.390377 
	C80.951248,44.437515 81.102448,45.922436 81.253647,47.407352 
	C81.102722,47.866459 80.951805,48.325565 80.266769,48.961929 
	C79.159775,49.764668 78.586891,50.390141 77.767044,51.023647 
	C77.520073,51.031681 77.025917,51.025558 77.013367,50.768066 
	C77.000244,50.338898 76.999664,50.167221 77.004906,49.682022 
	C77.016144,48.950424 77.021561,48.532356 77.028168,47.837040 
	C77.026978,47.374977 77.024597,47.190163 77.275009,46.736404 
	C78.322418,44.654163 79.117050,42.840858 79.911682,41.027557 
z"/>
<path fill="#B6896B" opacity="1.000000" stroke="none" 
	d="
M81.602692,47.346069 
	C81.102448,45.922436 80.951248,44.437515 80.730537,42.514500 
	C81.858246,42.061115 83.055473,42.045826 84.696045,42.051762 
	C84.076843,43.810253 83.014290,45.547520 81.602692,47.346069 
z"/>
<path fill="#423C30" opacity="1.000000" stroke="none" 
	d="
M77.025917,51.025558 
	C77.025917,51.025558 77.520073,51.031681 78.155762,51.015976 
	C79.310143,50.977215 79.828827,50.954155 80.347511,50.931095 
	C80.541412,52.381302 80.735321,53.831505 80.634987,55.552246 
	C80.165939,55.803734 79.991135,55.784691 79.617958,55.571335 
	C78.612549,54.927769 77.805511,54.478516 76.996780,53.682579 
	C76.985611,52.874084 76.976143,52.412273 76.979111,51.719086 
	C76.991554,51.487705 77.025917,51.025558 77.025917,51.025558 
z"/>
<path fill="#7C7262" opacity="1.000000" stroke="none" 
	d="
M79.816330,55.765644 
	C79.991135,55.784691 80.165939,55.803734 80.586517,55.918282 
	C80.832291,56.013786 81.087807,55.782341 81.137863,56.124634 
	C81.176239,56.669952 81.164566,56.872971 81.152893,57.075993 
	C81.088707,57.808502 81.024513,58.541012 80.734253,59.776886 
	C80.300575,60.508415 80.193230,60.776714 80.011581,61.133434 
	C79.836983,61.181721 79.474693,61.183537 79.474686,61.183537 
	C79.523933,60.037453 79.573181,58.891373 79.722473,57.079998 
	C79.820457,56.198353 79.818390,55.981998 79.816330,55.765644 
z"/>
<path fill="#36332D" opacity="1.000000" stroke="none" 
	d="
M94.996170,76.664902 
	C94.344330,76.967209 93.577202,76.997345 92.268150,76.883331 
	C91.726234,76.739197 91.544342,76.364357 91.757011,76.081528 
	C92.335335,75.506302 92.700981,75.213905 93.066635,74.921516 
	C93.671387,75.411919 94.276138,75.902321 94.996170,76.664902 
z"/>
<path fill="#BA9173" opacity="1.000000" stroke="none" 
	d="
M79.352448,61.612278 
	C79.474693,61.183537 79.836983,61.181721 80.193008,61.113411 
	C80.549026,61.045101 80.916451,61.018913 80.916451,61.018913 
	C80.781250,61.918728 80.646049,62.818546 80.234055,63.650703 
	C79.714920,63.069035 79.472557,62.555027 79.352448,61.612278 
z"/>
<path fill="#524839" opacity="1.000000" stroke="none" 
	d="
M80.465134,50.639446 
	C79.828827,50.954155 79.310143,50.977215 78.402733,51.007942 
	C78.586891,50.390141 79.159775,49.764668 80.087219,49.124733 
	C80.488785,49.522781 80.535774,49.935287 80.465134,50.639446 
z"/>
<path fill="#A08873" opacity="1.000000" stroke="none" 
	d="
M89.069557,75.952049 
	C89.048592,75.518456 89.027626,75.084862 89.002953,74.325378 
	C89.450409,74.002686 89.901581,74.005882 90.639969,74.399445 
	C90.871582,75.229866 90.815971,75.669899 90.479980,76.078827 
	C89.822922,76.015823 89.446236,75.983940 89.069557,75.952049 
z"/>
<path fill="#6A5F4D" opacity="1.000000" stroke="none" 
	d="
M90.760353,76.109940 
	C90.815971,75.669899 90.871582,75.229866 90.972763,74.460548 
	C91.606003,74.214432 92.193672,74.297600 92.923988,74.651138 
	C92.700981,75.213905 92.335335,75.506302 91.557816,76.029388 
	C91.145958,76.260086 90.760353,76.109940 90.760353,76.109940 
z"/>
<path fill="#BBB4A8" opacity="1.000000" stroke="none" 
	d="
M81.309647,56.972954 
	C81.164566,56.872971 81.176239,56.669952 81.300079,56.182907 
	C81.500526,56.119865 81.615936,56.335289 81.662933,56.564728 
	C81.680298,56.649479 81.536629,56.767220 81.309647,56.972954 
z"/>
<path fill="#BD9A81" opacity="1.000000" stroke="none" 
	d="
M83.812149,68.734589 
	C83.555031,68.818420 83.343422,68.597534 83.117065,68.098190 
	C83.375633,67.979561 83.627411,68.182938 83.812149,68.734589 
z"/>
<path fill="#A18367" opacity="1.000000" stroke="none" 
	d="
M80.939201,60.761936 
	C80.916451,61.018913 80.549026,61.045101 80.367599,61.065125 
	C80.193230,60.776714 80.300575,60.508415 80.678825,60.140831 
	C80.886963,60.169262 80.924461,60.337109 80.939201,60.761936 
z"/>
<path fill="#131413" opacity="1.000000" stroke="none" 
	d="
M44.165680,103.679031 
	C37.446590,105.892593 30.898525,107.794289 22.638828,110.193085 
	C19.665522,107.274788 15.378909,103.067482 11.037610,98.517227 
	C14.087742,96.442604 17.192560,94.710938 20.671482,92.998360 
	C22.430588,97.430275 23.815592,101.843109 25.597704,107.521187 
	C30.180782,100.945473 34.483982,94.771324 38.796288,88.584106 
	C48.021210,93.808044 49.353176,99.256104 44.165680,103.679031 
z"/>
<path fill="#040403" opacity="1.000000" stroke="none" 
	d="
M87.871040,82.953636 
	C90.395973,82.903412 91.633438,84.146271 89.780853,86.136017 
	C87.631859,88.444130 85.086281,90.696091 82.263741,92.000938 
	C75.723793,95.024323 69.070137,98.618401 61.502396,96.882462 
	C58.219574,96.129440 55.223289,94.127235 52.305725,92.116219 
	C52.727215,91.141640 52.939835,90.743271 53.537598,90.383949 
	C55.647446,90.754776 57.372143,91.086548 59.393234,91.574860 
	C60.131435,91.705315 60.573238,91.679237 61.459911,91.740990 
	C67.276550,90.912170 72.648315,89.995514 78.348083,89.041962 
	C79.475838,88.349876 80.275604,87.694702 81.420349,87.003250 
	C83.800560,85.629189 85.835800,84.291412 87.871040,82.953636 
z"/>
<path fill="#D19A76" opacity="1.000000" stroke="none" 
	d="
M49.047382,87.887550 
	C49.023575,87.541267 48.865082,87.275238 48.333092,86.618195 
	C48.030617,84.063667 47.966953,81.980423 47.977386,79.705490 
	C47.708488,79.291084 47.365494,79.068352 47.177830,78.543915 
	C47.941315,77.121506 48.549465,76.000801 49.519608,74.885368 
	C51.261585,75.247231 52.641567,75.603821 54.067932,76.122635 
	C54.114323,76.284851 54.137077,76.621513 54.204300,77.005814 
	C57.103775,81.993736 56.364761,85.894310 51.665596,88.960320 
	C50.589203,88.526016 49.818291,88.206787 49.047382,87.887550 
z"/>
<path fill="#0E1011" opacity="1.000000" stroke="none" 
	d="
M38.003563,110.006256 
	C40.444885,109.098938 42.886208,108.191628 45.656845,107.136803 
	C50.048347,105.345619 54.110535,103.701958 58.172722,102.058289 
	C58.445549,102.632378 58.718380,103.206467 58.991211,103.780556 
	C53.932327,106.492096 48.852612,109.165733 43.823288,111.931030 
	C41.277508,113.330772 38.822777,114.896103 36.162697,116.691223 
	C35.250820,116.995255 34.503124,116.994637 33.424728,116.650604 
	C34.730541,114.206879 36.367054,112.106567 38.003563,110.006256 
z"/>
<path fill="#C79E7F" opacity="1.000000" stroke="none" 
	d="
M87.999466,82.667252 
	C85.835800,84.291412 83.800560,85.629189 81.034515,86.985168 
	C79.530685,87.013733 78.757668,87.024094 77.986588,87.025955 
	C77.988525,87.017471 77.993385,87.001579 77.993385,87.001579 
	C79.227646,83.886711 80.461906,80.771851 81.850723,77.326660 
	C84.097649,76.693954 86.190018,76.391579 88.675980,76.020630 
	C89.446236,75.983940 89.822922,76.015823 90.479980,76.078827 
	C90.760353,76.109940 91.145958,76.260086 91.345154,76.312225 
	C91.544342,76.364357 91.726234,76.739197 91.884323,76.874908 
	C91.872299,77.397934 91.702171,77.785233 91.504440,78.488976 
	C90.360527,79.997231 89.244209,81.189056 87.999466,82.667252 
z"/>
<path fill="#181611" opacity="1.000000" stroke="none" 
	d="
M47.903290,79.897171 
	C47.966953,81.980423 48.030617,84.063667 48.103374,86.549881 
	C45.780720,87.001732 43.315414,87.275093 43.026222,83.542526 
	C43.033684,82.980408 43.025589,82.793022 43.366920,82.267944 
	C44.444847,81.266335 45.173351,80.602409 46.402977,79.965195 
	C47.237164,79.960327 47.570229,79.928749 47.903290,79.897171 
z"/>
<path fill="#181611" opacity="1.000000" stroke="none" 
	d="
M49.065674,88.222122 
	C49.818291,88.206787 50.589203,88.526016 51.731045,89.177139 
	C52.452133,89.787651 52.802292,90.066277 53.152451,90.344902 
	C52.939835,90.743271 52.727215,91.141640 52.250839,91.756805 
	C51.019375,90.834633 50.051670,89.695671 49.065674,88.222122 
z"/>
<path fill="#E0E4E1" opacity="1.000000" stroke="none" 
	d="
M45.901855,79.938484 
	C45.173351,80.602409 44.444847,81.266335 43.422729,81.992195 
	C38.078861,81.494171 33.031803,80.899910 27.973314,80.428185 
	C27.476408,80.381859 26.928686,81.122139 26.370924,81.437904 
	C25.090170,82.162956 23.788652,82.851334 22.495560,83.554596 
	C21.995007,82.073753 21.388832,80.619263 21.011953,79.107590 
	C19.259577,72.078773 17.722393,64.992699 15.814230,58.007408 
	C14.081477,51.664249 12.169209,45.351974 9.920434,39.177460 
	C9.097059,36.916706 7.079492,35.090881 5.245344,33.011726 
	C7.083473,24.867374 11.770576,18.940960 20.210018,15.666870 
	C21.498518,17.299881 22.318375,19.135777 23.061378,21.407536 
	C23.120407,26.936131 23.139341,32.064247 27.134413,36.275253 
	C26.967953,37.283756 26.921137,37.969994 26.534235,38.725376 
	C25.557404,39.851616 24.920660,40.908714 24.320011,42.243977 
	C24.877348,43.051769 25.398586,43.581394 25.930828,44.466965 
	C27.314650,46.521915 28.687469,48.220921 30.297066,49.973778 
	C30.835487,50.139069 31.138281,50.247292 31.634781,50.563400 
	C32.152630,50.973377 32.477921,51.172241 32.891098,51.690491 
	C33.391384,53.028309 33.803783,54.046741 34.178589,55.398125 
	C34.741692,56.831966 35.342392,57.932858 35.971703,59.350372 
	C36.052544,60.087025 36.104778,60.507050 36.121078,61.226051 
	C36.412193,61.954826 36.739239,62.384628 37.313324,62.995411 
	C38.000778,63.826538 38.441185,64.476685 39.009644,65.392563 
	C39.727993,66.152054 40.318291,66.645805 41.027756,67.408203 
	C42.179451,68.524078 43.211979,69.371307 44.376591,70.541641 
	C46.015549,71.887756 47.522423,72.910759 49.088360,74.166687 
	C49.147419,74.399612 49.157619,74.880096 49.157616,74.880096 
	C48.549465,76.000801 47.941315,77.121506 46.921257,78.649277 
	C46.306854,79.350388 46.104355,79.644432 45.901855,79.938484 
z"/>
<path fill="#0A0A0B" opacity="1.000000" stroke="none" 
	d="
M37.648022,110.049026 
	C36.367054,112.106567 34.730541,114.206879 33.050865,116.648590 
	C31.845322,116.467453 30.682941,115.944923 28.778379,115.088753 
	C31.940556,113.232864 34.616516,111.662331 37.648022,110.049026 
z"/>
<path fill="#222219" opacity="1.000000" stroke="none" 
	d="
M29.568308,9.009077 
	C29.659039,11.924045 29.349976,14.824250 29.115931,18.305025 
	C29.087948,19.139469 28.901899,19.291967 28.229137,19.228924 
	C26.884016,17.813744 25.917248,16.530092 25.009106,15.206223 
	C24.282209,14.146570 23.626556,13.038044 22.939283,11.951210 
	C23.997107,8.819741 26.508226,8.749902 29.568308,9.009077 
z"/>
<path fill="#322F23" opacity="1.000000" stroke="none" 
	d="
M22.560921,11.983554 
	C23.626556,13.038044 24.282209,14.146570 25.009106,15.206223 
	C25.917248,16.530092 26.884016,17.813744 28.194916,19.531940 
	C28.446686,20.338280 28.329016,20.727442 27.881844,21.111942 
	C26.080971,21.062078 24.609602,21.016874 23.138231,20.971670 
	C22.318375,19.135777 21.498518,17.299881 20.408726,15.362498 
	C20.820049,14.179306 21.501305,13.097602 22.560921,11.983554 
z"/>
<path fill="#C89F83" opacity="1.000000" stroke="none" 
	d="
M28.211348,21.116602 
	C28.329016,20.727442 28.446686,20.338280 28.598577,19.646103 
	C28.901899,19.291967 29.087948,19.139469 29.174440,18.699297 
	C29.683163,18.230137 30.208395,17.947273 31.466545,17.764606 
	C33.116993,17.951502 34.034523,18.038202 34.974670,18.481892 
	C35.521732,19.802050 35.805088,21.234171 36.611549,21.648767 
	C40.499512,23.647547 40.272293,26.620476 38.757580,30.180382 
	C38.355366,30.951012 38.187786,31.526073 37.782585,32.247440 
	C37.019623,32.908382 36.494286,33.423023 35.606625,33.967773 
	C34.519661,34.039139 33.795021,34.080399 33.111217,33.774731 
	C33.533150,32.917530 34.052498,32.459606 34.269283,31.887114 
	C34.907097,30.202753 35.424870,28.472940 35.989639,26.760921 
	C34.011562,27.327543 32.006153,27.818165 30.074202,28.513029 
	C29.577238,28.691774 29.311605,29.513689 28.703405,29.721331 
	C28.381855,26.640549 28.296600,23.878574 28.211348,21.116602 
z"/>
<path fill="#977861" opacity="1.000000" stroke="none" 
	d="
M47.131226,12.031922 
	C48.199471,11.423557 49.267715,10.815192 50.988441,10.304075 
	C53.124043,10.631637 54.607159,10.861951 56.232178,11.164146 
	C56.374084,11.236028 56.692173,11.242023 56.692173,11.242023 
	C56.692173,11.242023 56.723885,11.286047 56.666641,11.624275 
	C55.426197,16.577108 58.761650,15.734390 61.354713,16.138786 
	C61.955975,17.230700 62.506474,18.033409 62.850765,19.113100 
	C61.771675,19.576462 60.898796,19.762842 59.959633,19.647739 
	C57.595039,20.228989 55.296719,21.111721 52.570038,21.995533 
	C50.427658,21.997688 48.713638,21.998768 47.001411,21.609932 
	C47.685024,19.600607 48.251667,17.919744 49.075336,16.376022 
	C50.350361,13.986372 50.630920,12.208446 47.131226,12.031922 
z"/>
<path fill="#A47C61" opacity="1.000000" stroke="none" 
	d="
M46.739403,12.062090 
	C50.630920,12.208446 50.350361,13.986372 49.075336,16.376022 
	C48.251667,17.919744 47.685024,19.600607 46.769474,21.853111 
	C45.362873,21.838846 44.135681,21.271383 43.032551,20.521441 
	C41.949860,19.785393 40.993282,18.863846 39.563446,18.019199 
	C37.747707,18.051430 36.349876,18.088165 34.952049,18.124903 
	C34.034523,18.038202 33.116993,17.951502 31.760181,17.701389 
	C32.446590,16.642384 33.449291,15.453778 34.725971,14.917891 
	C36.789772,14.051605 39.033741,13.614532 41.735596,13.160374 
	C42.846893,12.974713 43.424217,12.624879 44.001541,12.275045 
	C44.783554,12.214117 45.565571,12.153188 46.739403,12.062090 
z"/>
<path fill="#554A3B" opacity="1.000000" stroke="none" 
	d="
M61.303951,15.849583 
	C58.761650,15.734390 55.426197,16.577108 56.676582,11.649519 
	C57.230785,11.268012 57.717804,11.199490 58.570236,11.204330 
	C60.260040,12.291106 61.584431,13.304518 62.767670,14.733814 
	C62.185665,15.382992 61.744808,15.616287 61.303951,15.849583 
z"/>
<path fill="#11120D" opacity="1.000000" stroke="none" 
	d="
M56.090275,11.092265 
	C54.607159,10.861951 53.124043,10.631637 51.314896,10.232058 
	C51.593231,9.072739 52.197594,8.082686 52.801960,7.092634 
	C53.851768,7.773583 54.901577,8.454532 55.940502,9.817770 
	C55.983173,10.697460 56.036724,10.894863 56.090275,11.092265 
z"/>
<path fill="#977861" opacity="1.000000" stroke="none" 
	d="
M43.711655,12.184555 
	C43.424217,12.624879 42.846893,12.974713 42.115021,13.106741 
	C42.447571,12.623978 42.934666,12.359022 43.711655,12.184555 
z"/>
<path fill="#554A3B" opacity="1.000000" stroke="none" 
	d="
M56.232178,11.164146 
	C56.036724,10.894863 55.983173,10.697460 55.954872,10.193817 
	C56.235180,10.152248 56.490238,10.416922 56.718735,10.961809 
	C56.692173,11.242023 56.374084,11.236028 56.232178,11.164146 
z"/>
<path fill="#504C3F" opacity="1.000000" stroke="none" 
	d="
M61.354713,16.138786 
	C61.744808,15.616287 62.185665,15.382992 62.860779,15.048018 
	C64.098289,15.015384 65.101547,15.084431 66.475487,15.209517 
	C66.901390,15.947018 66.956612,16.628479 66.798470,17.816612 
	C66.319542,18.642942 66.053963,18.962601 65.446030,19.248108 
	C64.421448,19.088007 63.739208,18.962063 63.056973,18.836119 
	C62.506474,18.033409 61.955975,17.230700 61.354713,16.138786 
z"/>
<path fill="#B57F54" opacity="1.000000" stroke="none" 
	d="
M78.020088,89.078865 
	C72.648315,89.995514 67.276550,90.912170 61.438488,91.525803 
	C60.972198,91.222778 60.887718,90.798553 61.202576,90.584946 
	C63.211884,90.066833 64.906334,89.762344 67.283356,89.335197 
	C66.039154,86.649094 64.994865,84.394592 64.303436,82.093872 
	C65.797836,81.361282 66.939384,80.674896 68.405922,80.057922 
	C71.476814,82.421127 74.222717,84.714935 76.968620,87.008743 
	C77.139458,87.010193 77.310295,87.011642 77.737259,87.007339 
	C77.993385,87.001579 77.988525,87.017471 77.990677,87.365936 
	C78.001907,88.169220 78.011002,88.624046 78.020088,89.078865 
z"/>
<path fill="#B28665" opacity="1.000000" stroke="none" 
	d="
M76.967987,86.623711 
	C74.222717,84.714935 71.476814,82.421127 68.380661,79.698105 
	C68.371132,77.909058 68.711845,76.549225 69.210167,74.881180 
	C70.884178,72.629265 72.400574,70.685555 73.916969,68.741852 
	C74.340096,68.654015 74.763214,68.566177 75.516174,68.428032 
	C76.098946,69.485382 76.944046,70.987015 76.510834,71.638161 
	C73.150749,76.688538 75.607491,81.423584 76.967987,86.623711 
z"/>
<path fill="#9D7B5D" opacity="1.000000" stroke="none" 
	d="
M77.151093,66.086433 
	C77.209038,65.634209 77.451050,65.077690 77.854446,64.716713 
	C77.788956,65.268875 77.562065,65.625511 77.151093,66.086433 
z"/>
<path fill="#796450" opacity="1.000000" stroke="none" 
	d="
M80.173538,40.861557 
	C79.117050,42.840858 78.322418,44.654163 76.953613,46.733894 
	C75.951660,46.988853 75.523865,46.977379 75.222641,46.581467 
	C75.180389,41.221291 75.011566,36.245552 75.210876,31.243725 
	C76.476761,30.812262 77.374519,30.406883 78.272270,30.001503 
	C78.764694,31.105787 79.257118,32.210072 79.670776,33.793289 
	C80.099068,35.258209 80.606125,36.244190 81.113182,37.230171 
	C81.113182,37.230171 81.125504,37.538940 81.085281,37.977894 
	C81.045731,38.606342 81.046402,38.795841 81.047081,38.985336 
	C80.843185,39.555408 80.639282,40.125481 80.173538,40.861557 
z"/>
<path fill="#2D271F" opacity="1.000000" stroke="none" 
	d="
M78.222641,29.671457 
	C77.374519,30.406883 76.476761,30.812262 74.996353,31.050982 
	C73.967224,30.526028 73.520737,30.167732 73.056366,29.481236 
	C73.013718,28.714901 72.988960,28.276772 72.964203,27.838642 
	C74.371742,27.848248 75.779289,27.857851 77.603737,27.942867 
	C78.071426,28.459322 78.122215,28.900366 78.222641,29.671457 
z"/>
<path fill="#7F472A" opacity="1.000000" stroke="none" 
	d="
M81.354729,36.987396 
	C80.606125,36.244190 80.099068,35.258209 79.820099,34.064201 
	C80.564217,34.818989 81.080246,35.781807 81.354729,36.987396 
z"/>
<path fill="#925638" opacity="1.000000" stroke="none" 
	d="
M81.280197,39.067154 
	C81.046402,38.795841 81.045731,38.606342 81.068420,38.131477 
	C81.610115,38.175877 82.128441,38.505646 82.646774,38.835411 
	C82.268959,38.939934 81.891136,39.044453 81.280197,39.067154 
z"/>
<path fill="#2E2E23" opacity="1.000000" stroke="none" 
	d="
M65.788383,19.282261 
	C66.053963,18.962601 66.319542,18.642942 66.851715,18.157316 
	C69.714264,19.774704 72.310204,21.558058 74.943886,23.692097 
	C73.241631,23.886175 71.501640,23.729572 69.224640,23.189575 
	C68.176559,22.447506 67.665504,22.088829 67.070831,21.461475 
	C66.587608,20.555952 66.187996,19.919106 65.788383,19.282261 
z"/>
<path fill="#0B0906" opacity="1.000000" stroke="none" 
	d="
M73.838654,68.440559 
	C72.400574,70.685555 70.884178,72.629265 68.818726,74.871109 
	C65.781494,75.979118 63.293324,76.788979 60.405258,77.469437 
	C58.049267,77.100517 56.093174,76.861015 54.137077,76.621513 
	C54.137077,76.621513 54.114323,76.284851 54.203522,75.820694 
	C54.363602,73.890450 54.434479,72.424370 54.476692,70.803467 
	C54.448029,70.648643 54.349976,70.350174 54.470928,70.281448 
	C54.823212,70.059784 54.961857,69.850883 54.997639,69.287827 
	C54.914684,68.804520 54.841900,68.619400 54.887478,68.415665 
	C55.005840,68.397049 55.173943,68.226273 55.330864,68.306923 
	C55.487782,68.387573 55.798576,68.220490 55.874638,68.197258 
	C55.950699,68.174026 55.911755,68.019814 55.977436,68.259613 
	C56.043118,68.499413 56.470230,68.748039 56.470230,68.748039 
	C56.470230,68.748039 56.961945,68.699684 57.191422,68.992081 
	C58.916393,69.349319 60.411888,69.414154 62.251984,69.520096 
	C64.396713,69.037727 66.196838,68.514252 68.179672,68.207886 
	C68.934883,68.146759 69.507385,67.868523 70.341621,67.467270 
	C71.328690,67.089622 72.054016,66.834991 72.779350,66.580360 
	C73.106346,67.099998 73.433334,67.619629 73.838654,68.440559 
z"/>
<path fill="#8F6F53" opacity="1.000000" stroke="none" 
	d="
M74.072777,56.004322 
	C74.054367,57.383320 74.035950,58.762318 73.593513,60.548820 
	C71.096634,60.607555 69.023773,60.258785 66.963013,59.541172 
	C65.980774,57.458427 64.986435,55.744534 64.350777,53.961494 
	C65.429543,52.703175 66.149612,51.513996 66.942871,49.976765 
	C67.699158,49.074921 68.382248,48.521133 69.290070,47.965057 
	C69.514809,47.962772 69.962799,47.925995 70.314995,47.959656 
	C71.455460,48.398232 72.243729,48.803146 72.979599,49.575127 
	C72.402672,52.134186 70.411308,54.603367 74.072777,56.004322 
z"/>
<path fill="#584A3A" opacity="1.000000" stroke="none" 
	d="
M66.950912,59.910019 
	C69.023773,60.258785 71.096634,60.607555 73.565811,60.961639 
	C73.695892,62.646362 73.429665,64.325760 72.971397,66.292755 
	C72.054016,66.834991 71.328690,67.089622 70.136925,67.323448 
	C69.112648,67.532021 68.554810,67.761398 67.996964,67.990768 
	C66.196838,68.514252 64.396713,69.037727 62.280151,69.208313 
	C62.974472,67.570351 63.985229,66.285278 65.122025,64.723137 
	C65.815674,62.934052 66.383293,61.422035 66.950912,59.910019 
z"/>
<path fill="#6A5640" opacity="1.000000" stroke="none" 
	d="
M74.290024,55.922314 
	C70.411308,54.603367 72.402672,52.134186 73.253922,49.452934 
	C74.102585,48.671452 74.624527,48.379238 75.459854,48.089748 
	C76.191147,48.099747 76.609062,48.107014 77.026978,48.114281 
	C77.021561,48.532356 77.016144,48.950424 76.694481,49.733971 
	C75.919586,50.719532 75.460938,51.339611 75.002243,52.355995 
	C75.036209,53.547768 75.070206,54.343239 75.104202,55.138706 
	C74.971535,55.429001 74.772560,55.662865 74.290024,55.922314 
z"/>
<path fill="#322D23" opacity="1.000000" stroke="none" 
	d="
M79.617958,55.571335 
	C79.818390,55.981998 79.820457,56.198353 79.741280,56.729450 
	C78.494850,56.648018 77.329681,56.251839 76.187569,55.291988 
	C76.473244,54.495296 76.735855,54.262276 76.998474,54.029259 
	C77.805511,54.478516 78.612549,54.927769 79.617958,55.571335 
z"/>
<path fill="#524839" opacity="1.000000" stroke="none" 
	d="
M76.996780,53.682579 
	C76.735855,54.262276 76.473244,54.495296 76.100922,54.975563 
	C75.991219,55.222816 75.549767,55.147705 75.326988,55.143204 
	C75.070206,54.343239 75.036209,53.547768 75.329803,52.356449 
	C76.093819,51.957218 76.530243,51.953842 76.966675,51.950462 
	C76.976143,52.412273 76.985611,52.874084 76.996780,53.682579 
z"/>
<path fill="#5E482E" opacity="1.000000" stroke="none" 
	d="
M72.732498,27.636364 
	C72.988960,28.276772 73.013718,28.714901 72.724808,29.567009 
	C71.975662,30.110264 71.540192,30.239540 70.850090,30.318514 
	C70.424675,30.243927 70.253883,30.219639 70.053421,29.803993 
	C70.036346,28.630371 70.048950,27.848106 70.061539,27.065842 
	C70.874626,27.188589 71.687706,27.311337 72.732498,27.636364 
z"/>
<path fill="#1D1914" opacity="1.000000" stroke="none" 
	d="
M69.016235,24.845930 
	C69.086731,25.299082 69.157227,25.752235 68.877777,26.650900 
	C68.248749,27.180943 67.969650,27.265472 67.445496,27.234535 
	C66.864983,26.981464 66.529533,26.843861 66.136726,26.389915 
	C66.011276,25.647781 65.943176,25.221987 66.154648,24.612320 
	C66.600571,24.279818 66.766922,24.131187 67.251953,24.190977 
	C68.052505,24.548239 68.534370,24.697084 69.016235,24.845930 
z"/>
<path fill="#37342A" opacity="1.000000" stroke="none" 
	d="
M67.690552,27.350002 
	C67.969650,27.265472 68.248749,27.180943 68.953232,26.987589 
	C69.378609,26.878765 69.740753,26.892817 69.901154,26.979328 
	C70.048950,27.848106 70.036346,28.630371 69.796448,29.863613 
	C69.395561,30.341116 69.221962,30.367643 68.938629,30.069981 
	C68.449448,28.947197 68.070000,28.148600 67.690552,27.350002 
z"/>
<path fill="#998066" opacity="1.000000" stroke="none" 
	d="
M69.015564,24.593868 
	C68.534370,24.697084 68.052505,24.548239 67.258026,23.912971 
	C67.015091,22.861084 67.084763,22.295618 67.154442,21.730152 
	C67.665504,22.088829 68.176559,22.447506 68.869392,23.072815 
	C69.039070,23.673569 69.026985,24.007687 69.015564,24.593868 
z"/>
<path fill="#7D6249" opacity="1.000000" stroke="none" 
	d="
M76.979111,51.719086 
	C76.530243,51.953842 76.093819,51.957218 75.329834,51.960144 
	C75.460938,51.339611 75.919586,50.719532 76.688660,50.047501 
	C76.999664,50.167221 77.000244,50.338898 77.013367,50.768066 
	C77.025917,51.025558 76.991554,51.487705 76.979111,51.719086 
z"/>
<path fill="#8F6F53" opacity="1.000000" stroke="none" 
	d="
M77.028160,47.837036 
	C76.609062,48.107014 76.191147,48.099747 75.428169,47.809917 
	C75.087418,47.340210 75.091743,47.153061 75.096077,46.965904 
	C75.523865,46.977379 75.951660,46.988853 76.700836,47.002838 
	C77.024597,47.190163 77.026978,47.374977 77.028160,47.837036 
z"/>
<path fill="#C88A5C" opacity="1.000000" stroke="none" 
	d="
M54.204300,77.005814 
	C56.093174,76.861015 58.049267,77.100517 60.419189,77.819763 
	C61.872200,79.579697 62.911388,80.859894 63.950577,82.140083 
	C64.994865,84.394592 66.039154,86.649094 67.283356,89.335197 
	C64.906334,89.762344 63.211884,90.066833 60.966064,90.631393 
	C59.975410,91.067085 59.536125,91.242706 59.096840,91.418327 
	C57.372143,91.086548 55.647446,90.754776 53.537601,90.383949 
	C52.802292,90.066277 52.452133,89.787651 52.036526,89.292206 
	C56.364761,85.894310 57.103775,81.993736 54.204300,77.005814 
z"/>
<path fill="#B28665" opacity="1.000000" stroke="none" 
	d="
M78.348083,89.041962 
	C78.011002,88.624046 78.001907,88.169220 77.988739,87.374420 
	C78.757668,87.024094 79.530685,87.013733 80.689537,87.021454 
	C80.275604,87.694702 79.475838,88.349876 78.348083,89.041962 
z"/>
<path fill="#B0794D" opacity="1.000000" stroke="none" 
	d="
M59.393234,91.574860 
	C59.536125,91.242706 59.975410,91.067085 60.651207,90.845009 
	C60.887718,90.798553 60.972198,91.222778 60.993622,91.437973 
	C60.573238,91.679237 60.131435,91.705315 59.393234,91.574860 
z"/>
<path fill="#251E17" opacity="1.000000" stroke="none" 
	d="
M54.505356,70.958290 
	C54.434479,72.424370 54.363602,73.890450 54.157135,75.658470 
	C52.641567,75.603821 51.261585,75.247231 49.519611,74.885368 
	C49.157619,74.880096 49.147419,74.399612 49.096054,73.826752 
	C48.841217,72.209770 48.637741,71.165634 48.369415,69.845268 
	C48.198170,69.412621 48.091778,69.256203 48.321671,69.134575 
	C49.080070,69.323502 49.502186,69.477646 50.062954,69.809692 
	C50.434811,70.185562 50.687508,70.354362 51.278786,70.666893 
	C52.567036,70.879288 53.536198,70.918785 54.505356,70.958290 
z"/>
<path fill="#47423D" opacity="1.000000" stroke="none" 
	d="
M46.402977,79.965195 
	C46.104355,79.644432 46.306854,79.350388 46.765923,78.950989 
	C47.365494,79.068352 47.708488,79.291084 47.977386,79.705490 
	C47.570229,79.928749 47.237164,79.960327 46.402977,79.965195 
z"/>
<path fill="#534D3D" opacity="1.000000" stroke="none" 
	d="
M27.881844,21.111942 
	C28.296600,23.878574 28.381855,26.640549 28.670563,30.133331 
	C28.916172,32.244614 28.958328,33.625088 28.830332,35.197647 
	C28.191473,35.577488 27.722765,35.765236 27.254059,35.952988 
	C23.139341,32.064247 23.120407,26.936131 23.061378,21.407536 
	C24.609602,21.016874 26.080971,21.062078 27.881844,21.111942 
z"/>
<path fill="#A57958" opacity="1.000000" stroke="none" 
	d="
M38.881592,65.126823 
	C38.441185,64.476685 38.000778,63.826538 37.301483,62.689980 
	C37.029194,61.795246 37.015789,61.386925 37.395157,60.983116 
	C38.834961,60.986446 39.881992,60.985260 41.197578,60.991074 
	C41.644482,60.994694 41.822834,60.991306 42.266335,61.226143 
	C43.693508,61.655163 44.855526,61.845951 46.036709,62.386887 
	C46.672211,64.199585 47.288551,65.662140 47.500023,67.115868 
	C45.071693,66.649460 43.048233,66.191864 40.975296,65.467026 
	C40.244408,65.175468 39.563000,65.151146 38.881592,65.126823 
z"/>
<path fill="#E2B897" opacity="1.000000" stroke="none" 
	d="
M34.216183,55.065174 
	C33.803783,54.046741 33.391384,53.028309 33.306618,51.568081 
	C34.479618,50.965240 35.324993,50.804199 36.537430,50.724651 
	C37.906090,50.909637 38.907688,51.013134 39.932701,51.358040 
	C39.956112,51.599457 40.100784,52.062473 40.043110,52.357391 
	C39.908535,53.044735 39.831635,53.437160 39.534538,53.851318 
	C39.314339,53.873043 38.876743,53.938942 38.538425,54.004593 
	C36.872131,54.401886 35.544159,54.733528 34.216183,55.065174 
z"/>
<path fill="#CB8F66" opacity="1.000000" stroke="none" 
	d="
M38.876743,53.938942 
	C38.876743,53.938942 39.314339,53.873043 39.609028,54.220352 
	C40.207699,55.697941 40.511681,56.828228 40.883049,58.277481 
	C41.013775,59.026279 41.077126,59.456116 41.064922,60.156113 
	C40.969261,60.612206 40.949146,60.798141 40.929028,60.984077 
	C39.881992,60.985260 38.834961,60.986446 37.183640,60.972923 
	C36.579357,60.958214 36.157013,60.927074 36.157013,60.927074 
	C36.104778,60.507050 36.052544,60.087025 36.183582,59.089775 
	C37.203484,56.988014 38.040115,55.463478 38.876743,53.938942 
z"/>
<path fill="#5C4838" opacity="1.000000" stroke="none" 
	d="
M41.024776,65.734276 
	C43.048233,66.191864 45.071693,66.649460 47.575577,67.441803 
	C48.032467,68.217636 48.008926,68.658714 47.985386,69.099792 
	C48.091778,69.256203 48.198170,69.412621 47.841606,69.800339 
	C46.333935,70.093948 45.289223,70.156235 44.244507,70.218529 
	C43.211979,69.371307 42.179451,68.524078 41.061016,67.057297 
	C40.991665,66.203262 41.008221,65.968773 41.024776,65.734276 
z"/>
<path fill="#8E8272" opacity="1.000000" stroke="none" 
	d="
M25.919827,44.111023 
	C25.398586,43.581394 24.877348,43.051769 24.654305,42.235947 
	C25.680304,41.508617 26.408106,41.067482 27.251118,40.696301 
	C27.366325,40.766258 27.451880,41.021893 27.829735,41.029198 
	C29.160364,41.328526 30.113138,41.620544 31.041748,42.259369 
	C31.015253,43.068962 31.012926,43.531746 30.653271,44.035675 
	C29.583246,44.139214 28.870554,44.201607 27.790424,44.180283 
	C26.921936,44.101387 26.420881,44.106205 25.919827,44.111023 
z"/>
<path fill="#DFA881" opacity="1.000000" stroke="none" 
	d="
M38.538425,54.004593 
	C38.040115,55.463478 37.203484,56.988014 36.154976,58.773148 
	C35.342392,57.932858 34.741692,56.831966 34.178589,55.398125 
	C35.544159,54.733528 36.872131,54.401886 38.538425,54.004593 
z"/>
<path fill="#BCBAB4" opacity="1.000000" stroke="none" 
	d="
M25.930828,44.466965 
	C26.420881,44.106205 26.921936,44.101387 27.819107,44.479866 
	C28.823526,46.093952 29.431831,47.324738 30.043692,48.896648 
	C30.051596,49.465157 30.055941,49.692543 30.060287,49.919930 
	C28.687469,48.220921 27.314650,46.521915 25.930828,44.466965 
z"/>
<path fill="#3F3429" opacity="1.000000" stroke="none" 
	d="
M44.376591,70.541641 
	C45.289223,70.156235 46.333935,70.093948 47.906456,70.076584 
	C48.637741,71.165634 48.841217,72.209770 49.036995,73.593826 
	C47.522423,72.910759 46.015549,71.887756 44.376591,70.541641 
z"/>
<path fill="#776955" opacity="1.000000" stroke="none" 
	d="
M27.451881,41.021893 
	C27.451880,41.021893 27.366325,40.766258 27.209766,40.373047 
	C26.993580,39.538631 26.933950,39.097435 26.874321,38.656235 
	C26.921137,37.969994 26.967953,37.283756 27.134413,36.275253 
	C27.722765,35.765236 28.191473,35.577488 29.046803,35.230843 
	C29.433426,35.071953 29.844175,35.224148 29.867744,35.509995 
	C29.914934,36.181149 29.938555,36.566452 29.768120,37.088058 
	C29.325108,37.438343 29.166168,37.705818 29.055408,38.093864 
	C29.013569,38.160938 28.997795,38.318256 28.743343,38.617218 
	C28.143221,39.618084 27.797550,40.319988 27.451881,41.021893 
z"/>
<path fill="#74726A" opacity="1.000000" stroke="none" 
	d="
M26.534235,38.725376 
	C26.933950,39.097435 26.993580,39.538631 27.094559,40.303085 
	C26.408106,41.067482 25.680304,41.508617 24.618206,41.957783 
	C24.920660,40.908714 25.557404,39.851616 26.534235,38.725376 
z"/>
<path fill="#B19279" opacity="1.000000" stroke="none" 
	d="
M36.170364,50.643158 
	C35.324993,50.804199 34.479618,50.965240 33.218727,51.248695 
	C32.477921,51.172241 32.152630,50.973377 31.946972,50.385593 
	C32.374279,49.647007 32.681953,49.297337 33.183128,48.897827 
	C33.376629,48.847980 33.776188,48.840446 34.158318,48.890121 
	C35.051105,48.971809 35.561764,49.003826 36.072517,49.306068 
	C36.105198,49.931911 36.137783,50.287537 36.170364,50.643158 
z"/>
<path fill="#7B5F48" opacity="1.000000" stroke="none" 
	d="
M40.975296,65.467026 
	C41.008221,65.968773 40.991665,66.203262 40.941849,66.788651 
	C40.318291,66.645805 39.727993,66.152054 39.009644,65.392563 
	C39.563000,65.151146 40.244408,65.175468 40.975296,65.467026 
z"/>
<path fill="#9E9892" opacity="1.000000" stroke="none" 
	d="
M32.989632,48.947670 
	C32.681953,49.297337 32.374279,49.647007 31.754414,50.174484 
	C31.138281,50.247292 30.835487,50.139069 30.297066,49.973778 
	C30.055941,49.692543 30.051596,49.465157 30.404930,48.996361 
	C31.504953,48.819191 32.247292,48.883430 32.989632,48.947670 
z"/>
<path fill="#B19279" opacity="1.000000" stroke="none" 
	d="
M36.121078,61.226051 
	C36.157013,60.927074 36.579357,60.958214 36.790871,60.968407 
	C37.015789,61.386925 37.029194,61.795246 37.054443,62.508999 
	C36.739239,62.384628 36.412193,61.954826 36.121078,61.226051 
z"/>
<path fill="#B3886B" opacity="1.000000" stroke="none" 
	d="
M39.981358,18.023708 
	C40.993282,18.863846 41.949860,19.785393 43.032551,20.521441 
	C44.135681,21.271383 45.362873,21.838846 46.767681,22.243027 
	C48.713638,21.998768 50.427658,21.997688 52.569977,22.404095 
	C53.001656,23.900581 53.005039,24.989582 52.786293,26.270199 
	C51.485661,27.701994 50.407162,28.942171 49.209091,30.268492 
	C48.856094,30.575880 48.739475,30.839647 48.431656,31.259995 
	C47.726574,31.556826 47.329502,31.739599 46.500977,31.907255 
	C44.931747,32.093838 43.793968,32.295540 42.272713,32.443459 
	C40.599556,32.293503 39.309879,32.197319 38.020206,32.101135 
	C38.187786,31.526073 38.355366,30.951012 39.142227,30.173491 
	C42.693645,29.739273 43.412148,27.992821 42.637074,25.481123 
	C41.859718,22.962027 40.875126,20.506882 39.981358,18.023708 
z"/>
<path fill="#CFA98C" opacity="1.000000" stroke="none" 
	d="
M29.844175,35.224148 
	C29.844175,35.224148 29.433426,35.071953 29.216955,35.038757 
	C28.958328,33.625088 28.916172,32.244614 28.906860,30.452141 
	C29.311605,29.513689 29.577238,28.691774 30.074202,28.513029 
	C32.006153,27.818165 34.011562,27.327543 35.989639,26.760921 
	C35.424870,28.472940 34.907097,30.202753 34.269283,31.887114 
	C34.052498,32.459606 33.533150,32.917530 33.143360,33.896095 
	C33.134666,34.364384 33.183392,34.611832 32.919716,34.577736 
	C32.222073,34.840427 31.788103,35.137211 30.979721,35.359406 
	C30.351597,35.264595 30.097887,35.244370 29.844175,35.224148 
z"/>
<path fill="#BE9479" opacity="1.000000" stroke="none" 
	d="
M39.563446,18.019199 
	C40.875126,20.506882 41.859718,22.962027 42.637074,25.481123 
	C43.412148,27.992821 42.693645,29.739273 39.376862,29.977921 
	C40.272293,26.620476 40.499512,23.647547 36.611549,21.648767 
	C35.805088,21.234171 35.521732,19.802050 34.974670,18.481892 
	C36.349876,18.088165 37.747707,18.051430 39.563446,18.019199 
z"/>
<path fill="#2E2419" opacity="1.000000" stroke="none" 
	d="
M37.782585,32.247440 
	C39.309879,32.197319 40.599556,32.293503 42.324871,32.695385 
	C42.848171,33.336926 42.935829,33.672760 42.982361,34.345383 
	C42.840115,35.122402 42.738995,35.562637 42.372017,36.002090 
	C41.751694,35.998322 41.397228,35.995346 40.821541,36.109512 
	C40.321400,36.426888 40.117271,36.686031 39.650230,37.004093 
	C38.637234,37.014088 37.961941,37.024067 37.022179,36.988251 
	C36.579533,36.925888 36.401363,36.909325 36.162987,36.891808 
	C36.102779,36.890854 36.054474,36.780540 36.044773,36.425308 
	C36.013031,35.359272 35.990990,34.648468 35.968948,33.937664 
	C36.494286,33.423023 37.019623,32.908382 37.782585,32.247440 
z"/>
<path fill="#463B30" opacity="1.000000" stroke="none" 
	d="
M35.606625,33.967773 
	C35.990990,34.648468 36.013031,35.359272 35.673973,36.496109 
	C34.565479,36.866375 33.818089,36.810612 33.067802,36.486065 
	C33.104401,35.682133 33.143894,35.146984 33.183392,34.611832 
	C33.183392,34.611832 33.134666,34.364384 33.102524,34.243019 
	C33.795021,34.080399 34.519661,34.039139 35.606625,33.967773 
z"/>
<path fill="#A88F79" opacity="1.000000" stroke="none" 
	d="
M67.070831,21.461475 
	C67.084763,22.295618 67.015091,22.861084 66.939346,23.704556 
	C66.766922,24.131187 66.600571,24.279818 65.728111,24.583107 
	C63.016205,24.646873 61.010410,24.555981 59.020206,24.116806 
	C59.365837,22.495422 59.695877,21.222324 60.025913,19.949224 
	C60.898796,19.762842 61.771675,19.576462 62.850765,19.113100 
	C63.739208,18.962063 64.421448,19.088007 65.446030,19.248108 
	C66.187996,19.919106 66.587608,20.555952 67.070831,21.461475 
z"/>
<path fill="#A1846D" opacity="1.000000" stroke="none" 
	d="
M59.959633,19.647739 
	C59.695877,21.222324 59.365837,22.495422 58.945457,24.217617 
	C58.855110,24.666710 58.962612,24.893459 58.576488,24.856697 
	C56.463051,25.239485 54.735737,25.659033 53.008423,26.078579 
	C53.005039,24.989582 53.001656,23.900581 52.998337,22.403019 
	C55.296719,21.111721 57.595039,20.228989 59.959633,19.647739 
z"/>
<path fill="#966338" opacity="1.000000" stroke="none" 
	d="
M64.303436,82.093872 
	C62.911388,80.859894 61.872200,79.579697 60.819084,77.949173 
	C63.293324,76.788979 65.781494,75.979118 68.661110,75.179329 
	C68.711845,76.549225 68.371132,77.909058 68.055679,79.628700 
	C66.939384,80.674896 65.797836,81.361282 64.303436,82.093872 
z"/>
<path fill="#B89272" opacity="1.000000" stroke="none" 
	d="
M75.222641,46.581467 
	C75.091743,47.153061 75.087418,47.340210 75.114792,47.807190 
	C74.624527,48.379238 74.102585,48.671452 73.306320,49.085865 
	C72.243729,48.803146 71.455460,48.398232 70.332062,47.575951 
	C70.760620,45.453148 71.579956,43.770012 72.274612,42.036896 
	C73.250961,39.601006 74.030106,37.175610 69.993027,36.589207 
	C70.369072,34.256302 70.736900,32.312561 71.104721,30.368816 
	C71.540192,30.239540 71.975662,30.110264 72.742691,29.895214 
	C73.520737,30.167732 73.967224,30.526028 74.628220,31.077068 
	C75.011566,36.245552 75.180389,41.221291 75.222641,46.581467 
z"/>
<path fill="#705844" opacity="1.000000" stroke="none" 
	d="
M64.995987,65.000206 
	C63.985229,66.285278 62.974472,67.570351 61.935547,69.167206 
	C60.411888,69.414154 58.916393,69.349319 57.025490,68.868652 
	C56.407104,68.281166 56.167667,68.136833 55.911755,68.019814 
	C55.911755,68.019814 55.950699,68.174026 56.074505,67.914413 
	C56.817276,67.020836 57.436241,66.386871 58.340969,65.770950 
	C59.065952,65.468414 59.505173,65.147820 60.364189,64.864105 
	C62.187988,64.934052 63.591988,64.967133 64.995987,65.000206 
z"/>
<path fill="#8A624B" opacity="1.000000" stroke="none" 
	d="
M58.055206,65.752907 
	C57.436241,66.386871 56.817276,67.020836 55.998444,67.937637 
	C55.798576,68.220490 55.487782,68.387573 55.228802,67.914391 
	C54.922398,66.376503 54.874973,65.311798 55.109631,64.058411 
	C56.317947,63.288609 57.244190,62.707497 58.170113,62.430027 
	C58.170292,63.138298 58.170788,63.542927 58.128403,64.248215 
	C58.075413,64.950218 58.065308,65.351562 58.055206,65.752907 
z"/>
<path fill="#B88B6C" opacity="1.000000" stroke="none" 
	d="
M54.827553,64.247093 
	C54.874973,65.311798 54.922398,66.376503 55.071884,67.833740 
	C55.173943,68.226273 55.005840,68.397049 54.531788,68.345726 
	C53.680527,68.557983 53.303318,68.821564 52.673416,69.082588 
	C52.269466,69.005844 52.118206,68.931656 51.960785,68.522812 
	C52.275345,66.908493 52.596069,65.628830 53.229462,64.266724 
	C53.970604,64.205223 54.399075,64.226158 54.827553,64.247093 
z"/>
<path fill="#3F3429" opacity="1.000000" stroke="none" 
	d="
M51.966949,68.857468 
	C52.118206,68.931656 52.269466,69.005844 52.701965,69.061798 
	C52.983208,69.043556 52.925537,69.004341 53.058525,69.188454 
	C53.427010,69.561447 53.671200,69.738342 54.029835,70.015656 
	C54.135590,70.128082 54.349976,70.350174 54.349976,70.350174 
	C54.349976,70.350174 54.448029,70.648643 54.476692,70.803467 
	C53.536198,70.918785 52.567036,70.879288 51.319679,70.425720 
	C51.041481,70.011642 51.106358,69.529160 51.327042,69.368332 
	C51.687469,69.090828 51.827209,68.974144 51.966949,68.857468 
z"/>
<path fill="#1A1712" opacity="1.000000" stroke="none" 
	d="
M68.179672,68.207886 
	C68.554810,67.761398 69.112648,67.532021 69.875191,67.446465 
	C69.507385,67.868523 68.934883,68.146759 68.179672,68.207886 
z"/>
<path fill="#8A624B" opacity="1.000000" stroke="none" 
	d="
M52.954659,69.064346 
	C53.303318,68.821564 53.680527,68.557983 54.413425,68.364349 
	C54.841900,68.619400 54.914684,68.804520 54.720009,69.111069 
	C54.246918,69.155991 54.041279,69.079468 53.608162,69.038689 
	C53.380692,69.074425 52.925537,69.004341 52.925537,69.004341 
	C52.925537,69.004341 52.983208,69.043556 52.954659,69.064346 
z"/>
<path fill="#8A624B" opacity="1.000000" stroke="none" 
	d="
M55.977436,68.259613 
	C56.167667,68.136833 56.407104,68.281166 56.796009,68.576248 
	C56.961945,68.699684 56.470230,68.748039 56.470230,68.748039 
	C56.470230,68.748039 56.043118,68.499413 55.977436,68.259613 
z"/>
<path fill="#3F3429" opacity="1.000000" stroke="none" 
	d="
M54.730179,69.409264 
	C54.961857,69.850883 54.823212,70.059784 54.470928,70.281448 
	C54.349976,70.350174 54.135590,70.128082 53.998749,69.791916 
	C53.861912,69.455757 53.835636,69.002953 53.835636,69.002953 
	C54.041279,69.079468 54.246918,69.155991 54.730179,69.409264 
z"/>
<path fill="#AE8472" opacity="1.000000" stroke="none" 
	d="
M58.171288,63.947556 
	C58.170788,63.542927 58.170292,63.138298 58.356361,62.182682 
	C57.039082,61.410786 55.535236,61.189880 54.031414,60.621902 
	C54.708546,58.877022 55.385658,57.479210 56.440872,56.053307 
	C58.573605,55.259274 60.328232,54.493332 62.403755,53.760918 
	C63.147133,53.873177 63.569611,53.951908 63.992092,54.030636 
	C64.986435,55.744534 65.980774,57.458427 66.963013,59.541172 
	C66.383293,61.422035 65.815674,62.934052 65.122025,64.723137 
	C63.591988,64.967133 62.187988,64.934052 60.196693,64.670532 
	C59.130024,64.275917 58.650654,64.111740 58.171288,63.947556 
z"/>
<path fill="#CBA184" opacity="1.000000" stroke="none" 
	d="
M69.984810,36.978367 
	C74.030106,37.175610 73.250961,39.601006 72.274612,42.036896 
	C71.579956,43.770012 70.760620,45.453148 69.979866,47.542290 
	C69.962799,47.925995 69.514809,47.962772 69.053467,47.711037 
	C67.068481,45.634918 65.544830,43.810528 64.154083,41.742302 
	C64.546844,41.013527 64.806709,40.528599 65.038376,40.025753 
	C65.010178,40.007835 65.011795,40.074631 65.269745,40.101837 
	C65.697884,40.098389 65.868065,40.067726 66.306168,39.932316 
	C67.092224,39.274513 67.610359,38.721462 68.368019,38.030960 
	C69.066635,37.588463 69.525719,37.283413 69.984810,36.978367 
z"/>
<path fill="#A37150" opacity="1.000000" stroke="none" 
	d="
M64.021187,41.986141 
	C65.544830,43.810528 67.068481,45.634918 68.828735,47.713326 
	C68.382248,48.521133 67.699158,49.074921 66.635101,49.816975 
	C64.949867,49.857357 63.645607,49.709476 61.974102,49.405640 
	C61.088772,49.164009 60.570683,49.078339 60.033279,48.627460 
	C59.670284,46.854656 59.326614,45.447063 59.098709,43.815811 
	C59.478527,43.387787 59.742580,43.183422 60.332863,42.854431 
	C61.779797,42.481922 62.900490,42.234032 64.021187,41.986141 
z"/>
<path fill="#1F1C16" opacity="1.000000" stroke="none" 
	d="
M62.341347,49.561600 
	C63.645607,49.709476 64.949867,49.857357 66.561905,50.165028 
	C66.149612,51.513996 65.429543,52.703175 64.350777,53.961494 
	C63.569611,53.951908 63.147133,53.873177 62.439606,53.469864 
	C62.116230,52.755814 62.077900,52.366356 62.070686,51.670807 
	C62.181644,50.763680 62.261494,50.162640 62.341347,49.561600 
z"/>
<path fill="#94806A" opacity="1.000000" stroke="none" 
	d="
M69.993027,36.589207 
	C69.525719,37.283413 69.066635,37.588463 68.233261,37.722012 
	C67.892845,36.018204 67.926720,34.485901 68.091530,32.698036 
	C68.497772,31.759710 68.773071,31.076941 69.048370,30.394171 
	C69.221962,30.367643 69.395561,30.341116 69.826126,30.254971 
	C70.253883,30.219639 70.424675,30.243927 70.850090,30.318516 
	C70.736900,32.312561 70.369072,34.256302 69.993027,36.589207 
z"/>
<path fill="#726047" opacity="1.000000" stroke="none" 
	d="
M68.938629,30.069981 
	C68.773071,31.076941 68.497772,31.759710 67.704666,32.705418 
	C66.414192,32.910072 65.641510,32.851788 64.889465,32.472382 
	C64.289368,31.424578 63.668640,30.697903 62.657364,29.959492 
	C61.231911,29.907244 60.197010,29.866732 59.148239,29.620705 
	C59.134369,29.415190 59.086403,29.006021 59.281612,28.883675 
	C59.714985,28.556770 59.894943,28.309786 60.369274,27.851238 
	C62.545929,27.356819 64.370003,27.031538 66.194077,26.706257 
	C66.529533,26.843861 66.864983,26.981464 67.445496,27.234535 
	C68.070000,28.148600 68.449448,28.947197 68.938629,30.069981 
z"/>
<path fill="#413B31" opacity="1.000000" stroke="none" 
	d="
M66.136726,26.389915 
	C64.370003,27.031538 62.545929,27.356819 60.083946,27.822723 
	C59.257095,27.934950 59.068153,27.906553 58.907959,27.506359 
	C58.945343,26.387527 58.953976,25.640493 58.962612,24.893459 
	C58.962612,24.893459 58.855110,24.666710 58.929863,24.565899 
	C61.010410,24.555981 63.016205,24.646873 65.448547,24.766979 
	C65.943176,25.221987 66.011276,25.647781 66.136726,26.389915 
z"/>
<path fill="#CD9A7A" opacity="1.000000" stroke="none" 
	d="
M51.960785,68.522812 
	C51.827209,68.974144 51.687469,69.090828 51.019714,69.267090 
	C50.302567,69.428383 50.113434,69.530090 49.924297,69.631790 
	C49.502186,69.477646 49.080070,69.323502 48.321671,69.134575 
	C48.008926,68.658714 48.032467,68.217636 47.980453,67.450623 
	C47.288551,65.662140 46.672211,64.199585 46.202599,62.074165 
	C46.612495,61.019833 46.875664,60.628368 47.396030,60.188194 
	C49.390522,60.428776 51.127811,60.718075 52.791218,61.421177 
	C52.783821,62.673042 52.850307,63.511101 52.916798,64.349159 
	C52.596069,65.628830 52.275345,66.908493 51.960785,68.522812 
z"/>
<path fill="#5C4838" opacity="1.000000" stroke="none" 
	d="
M50.062954,69.809692 
	C50.113434,69.530090 50.302567,69.428383 50.799030,69.427917 
	C51.106358,69.529160 51.041481,70.011642 51.000587,70.252823 
	C50.687508,70.354362 50.434811,70.185562 50.062954,69.809692 
z"/>
<path fill="#3E2D20" opacity="1.000000" stroke="none" 
	d="
M47.138832,60.236904 
	C46.875664,60.628368 46.612495,61.019833 46.183437,61.724018 
	C44.855526,61.845951 43.693508,61.655163 42.202827,60.987251 
	C41.723038,60.192238 41.478474,59.984177 41.140472,59.885948 
	C41.077126,59.456116 41.013775,59.026279 41.314301,58.168594 
	C42.153717,57.394150 42.629265,57.047558 43.438656,57.021164 
	C44.894608,58.306545 46.016720,59.271725 47.138832,60.236904 
z"/>
<path fill="#9A6542" opacity="1.000000" stroke="none" 
	d="
M41.064922,60.156113 
	C41.478474,59.984177 41.723038,60.192238 41.937675,60.749023 
	C41.822834,60.991306 41.644482,60.994694 41.197578,60.991077 
	C40.949146,60.798141 40.969261,60.612206 41.064922,60.156113 
z"/>
<path fill="#9A6542" opacity="1.000000" stroke="none" 
	d="
M43.104816,56.700966 
	C42.629265,57.047558 42.153717,57.394150 41.246918,57.849628 
	C40.511681,56.828228 40.207699,55.697941 39.829224,54.198624 
	C39.831635,53.437160 39.908535,53.044735 40.348850,52.313522 
	C41.476109,51.653446 42.239948,51.332157 43.005302,51.388161 
	C43.011459,52.772202 43.016106,53.778954 43.015198,55.210052 
	C43.019032,55.917175 43.028416,56.199944 43.058754,56.522175 
	C43.079712,56.561638 43.104816,56.700966 43.104816,56.700966 
z"/>
<path fill="#9D7458" opacity="1.000000" stroke="none" 
	d="
M36.537430,50.724651 
	C36.137783,50.287537 36.105198,49.931911 36.294395,49.280334 
	C36.516171,48.984379 36.960819,48.928585 37.255508,48.830154 
	C38.324024,48.454777 39.097851,48.177830 39.910923,48.211540 
	C39.966724,48.730289 39.983273,48.938381 39.995674,49.474823 
	C39.964111,50.240990 39.936699,50.678806 39.909286,51.116627 
	C38.907688,51.013134 37.906090,50.909637 36.537430,50.724651 
z"/>
<path fill="#B97A54" opacity="1.000000" stroke="none" 
	d="
M39.932701,51.358040 
	C39.936699,50.678806 39.964111,50.240990 40.325344,49.441505 
	C41.099075,49.043015 41.538986,49.006180 42.246101,48.932213 
	C42.689732,48.860172 42.866161,48.825260 43.261803,48.855759 
	C43.481010,48.921162 43.914436,49.067650 43.953964,49.293251 
	C43.993492,49.518856 44.036278,49.974930 43.820415,50.099773 
	C43.337620,50.435745 43.137363,50.697826 43.003788,51.010864 
	C42.239948,51.332157 41.476109,51.653446 40.406525,52.018604 
	C40.100784,52.062473 39.956112,51.599457 39.932701,51.358040 
z"/>
<path fill="#DFDFDD" opacity="1.000000" stroke="none" 
	d="
M33.183128,48.897827 
	C32.247292,48.883430 31.504953,48.819191 30.401375,48.655239 
	C29.431831,47.324738 28.823526,46.093952 28.186541,44.563583 
	C28.870554,44.201607 29.583246,44.139214 30.960457,44.105267 
	C32.044098,44.156929 32.463223,44.180141 32.944237,44.535847 
	C33.262814,46.192379 33.519501,47.516411 33.776188,48.840446 
	C33.776188,48.840446 33.376629,48.847980 33.183128,48.897827 
z"/>
<path fill="#DBDAD7" opacity="1.000000" stroke="none" 
	d="
M27.829735,41.029198 
	C27.797550,40.319988 28.143221,39.618084 29.116949,38.743958 
	C30.483246,39.711723 31.221487,40.851715 31.738548,41.946228 
	C31.517368,41.900753 31.065912,41.912563 31.065912,41.912563 
	C30.113138,41.620544 29.160364,41.328526 27.829735,41.029198 
z"/>
<path fill="#BAA18B" opacity="1.000000" stroke="none" 
	d="
M31.041748,42.259369 
	C31.065912,41.912563 31.517368,41.900753 31.971775,42.024162 
	C32.711166,42.328640 32.923264,42.572975 33.021740,43.211861 
	C32.948128,43.763210 32.915237,43.983280 32.882351,44.203350 
	C32.463223,44.180141 32.044098,44.156929 31.317785,44.064125 
	C31.012926,43.531746 31.015253,43.068962 31.041748,42.259369 
z"/>
<path fill="#A78061" opacity="1.000000" stroke="none" 
	d="
M33.062466,42.880585 
	C32.923264,42.572975 32.711166,42.328640 32.192955,42.069641 
	C31.221487,40.851715 30.483246,39.711723 29.371401,38.444992 
	C28.997795,38.318256 29.013569,38.160938 29.247284,37.957596 
	C29.725544,37.537243 29.885937,37.269745 29.962175,36.951759 
	C29.938555,36.566452 29.914934,36.181149 29.867744,35.509995 
	C30.097887,35.244370 30.351597,35.264595 31.008572,35.611588 
	C31.964792,36.210518 32.517746,36.482681 33.070698,36.754845 
	C33.818089,36.810612 34.565479,36.866375 35.683670,36.851341 
	C36.054474,36.780540 36.102779,36.890854 36.116634,37.154503 
	C36.139866,37.595184 36.149242,37.772217 36.115578,38.251144 
	C36.437698,38.952648 36.802853,39.352253 37.505714,39.839249 
	C39.529392,39.895309 41.215359,39.863983 43.269371,39.892067 
	C44.376286,39.901695 45.115166,39.851906 45.909576,40.109547 
	C45.995693,40.622990 46.026272,40.829002 45.930054,41.282928 
	C45.573780,42.034328 45.344299,42.537819 45.058258,43.401737 
	C44.383392,44.911510 43.765087,46.060856 42.959114,46.954369 
	C42.195637,46.474651 41.619827,46.250771 40.796856,45.772186 
	C39.392815,45.321152 38.235939,45.124832 36.985130,44.583611 
	C35.614960,43.785999 34.338711,43.333294 33.062466,42.880585 
z"/>
<path fill="#998066" opacity="1.000000" stroke="none" 
	d="
M29.768120,37.088058 
	C29.885937,37.269745 29.725544,37.537243 29.289124,37.890522 
	C29.166168,37.705818 29.325108,37.438343 29.768120,37.088058 
z"/>
<path fill="#D09F78" opacity="1.000000" stroke="none" 
	d="
M33.021740,43.211861 
	C34.338711,43.333294 35.614960,43.785999 36.959656,44.986141 
	C37.005680,46.798576 36.983250,47.863583 36.960823,48.928585 
	C36.960819,48.928585 36.516171,48.984379 36.294296,49.010109 
	C35.561764,49.003826 35.051105,48.971809 34.158318,48.890121 
	C33.519501,47.516411 33.262814,46.192379 32.944237,44.535847 
	C32.915237,43.983280 32.948128,43.763210 33.021740,43.211861 
z"/>
<path fill="#1F1C16" opacity="1.000000" stroke="none" 
	d="
M58.576488,24.856697 
	C58.953976,25.640493 58.945343,26.387527 58.691040,27.539932 
	C58.445374,27.945301 58.010345,28.015051 57.670158,28.051399 
	C55.903625,28.748541 54.477283,29.409338 52.589363,30.052595 
	C51.194744,30.084154 50.261703,30.133251 49.328663,30.182346 
	C50.407162,28.942171 51.485661,27.701994 52.786293,26.270199 
	C54.735737,25.659033 56.463051,25.239485 58.576488,24.856697 
z"/>
<path fill="#1D1914" opacity="1.000000" stroke="none" 
	d="
M46.932434,31.922371 
	C47.329502,31.739599 47.726574,31.556826 48.591087,31.858315 
	C49.178944,32.733315 49.299362,33.124050 49.422955,33.673111 
	C49.426128,33.831432 49.487640,34.147285 49.305656,34.437805 
	C48.608814,35.736752 48.093952,36.745182 47.365845,37.677334 
	C46.760777,37.396210 46.368958,37.191364 45.957123,36.591007 
	C45.968380,35.145653 45.999657,34.095814 46.257828,32.926750 
	C46.633961,32.512474 46.783195,32.217422 46.932434,31.922371 
z"/>
<path fill="#33281B" opacity="1.000000" stroke="none" 
	d="
M49.419777,33.514786 
	C49.299362,33.124050 49.178944,32.733315 48.899101,31.744259 
	C48.739475,30.839647 48.856094,30.575880 49.209091,30.268494 
	C50.261703,30.133251 51.194744,30.084154 52.451542,30.319139 
	C52.514164,31.349262 52.253033,32.095303 51.663120,32.906666 
	C50.696152,33.152920 50.057964,33.333855 49.419777,33.514786 
z"/>
<path fill="#77573B" opacity="1.000000" stroke="none" 
	d="
M46.500977,31.907253 
	C46.783195,32.217422 46.633961,32.512474 45.962254,33.044884 
	C44.634354,33.524361 43.828918,33.766479 43.023487,34.008598 
	C42.935829,33.672760 42.848171,33.336926 42.708351,32.749161 
	C43.793968,32.295540 44.931747,32.093838 46.500977,31.907253 
z"/>
<path fill="#5C4A3A" opacity="1.000000" stroke="none" 
	d="
M33.067802,36.486061 
	C32.517746,36.482681 31.964792,36.210518 31.382988,35.686172 
	C31.788103,35.137211 32.222073,34.840427 32.919716,34.577736 
	C33.143894,35.146984 33.104401,35.682133 33.067802,36.486061 
z"/>
<path fill="#2C241B" opacity="1.000000" stroke="none" 
	d="
M42.901329,39.832657 
	C41.215359,39.863983 39.529392,39.895309 37.478874,39.535156 
	C37.098072,38.734524 37.081818,38.325371 37.108803,37.692665 
	C37.152042,37.469105 37.286648,37.034046 37.286648,37.034046 
	C37.961941,37.024067 38.637234,37.014088 39.867943,36.883007 
	C40.697460,36.559841 40.903931,36.303329 41.042763,35.992371 
	C41.397228,35.995346 41.751694,35.998322 42.455700,36.260540 
	C42.843533,36.696270 42.881828,36.872765 42.917618,37.396988 
	C42.910511,38.440697 42.905922,39.136677 42.901329,39.832657 
z"/>
<path fill="#6A5F4D" opacity="1.000000" stroke="none" 
	d="
M42.920128,37.049263 
	C42.881828,36.872765 42.843533,36.696270 42.721558,36.261330 
	C42.738995,35.562637 42.840115,35.122402 42.982361,34.345383 
	C43.828918,33.766479 44.634354,33.524361 45.735359,33.164108 
	C45.999657,34.095814 45.968380,35.145653 45.576126,36.592743 
	C44.450146,37.009747 43.685135,37.029503 42.920128,37.049263 
z"/>
<path fill="#463B30" opacity="1.000000" stroke="none" 
	d="
M37.022179,36.988251 
	C37.286648,37.034046 37.152042,37.469105 36.881973,37.708637 
	C36.611900,37.948170 36.158615,37.949245 36.158615,37.949245 
	C36.149242,37.772217 36.139866,37.595184 36.176842,37.155457 
	C36.401363,36.909325 36.579533,36.925888 37.022179,36.988251 
z"/>
<path fill="#473625" opacity="1.000000" stroke="none" 
	d="
M40.821541,36.109512 
	C40.903931,36.303329 40.697460,36.559841 40.205643,36.882992 
	C40.117271,36.686031 40.321400,36.426888 40.821541,36.109512 
z"/>
<path fill="#A57E64" opacity="1.000000" stroke="none" 
	d="
M58.128403,64.248215 
	C58.650654,64.111740 59.130024,64.275917 59.776894,64.633667 
	C59.505173,65.147820 59.065952,65.468414 58.340965,65.770950 
	C58.065308,65.351562 58.075413,64.950218 58.128403,64.248215 
z"/>
<path fill="#704E39" opacity="1.000000" stroke="none" 
	d="
M53.229462,64.266724 
	C52.850307,63.511101 52.783821,62.673042 53.084175,61.432739 
	C53.644478,61.009991 53.837936,60.989483 54.031395,60.968975 
	C55.535236,61.189880 57.039082,61.410786 58.356678,61.879040 
	C57.244190,62.707497 56.317947,63.288609 55.109627,64.058411 
	C54.399075,64.226158 53.970604,64.205223 53.229462,64.266724 
z"/>
<path fill="#B88B6C" opacity="1.000000" stroke="none" 
	d="
M53.608162,69.038689 
	C53.835636,69.002953 53.861912,69.455757 53.892998,69.679497 
	C53.671200,69.738342 53.427010,69.561447 53.058525,69.188454 
	C52.925537,69.004341 53.380692,69.074425 53.608162,69.038689 
z"/>
<path fill="#A86D60" opacity="1.000000" stroke="none" 
	d="
M54.031414,60.621902 
	C53.837936,60.989483 53.644478,61.009991 53.158062,61.018936 
	C51.127811,60.718075 49.390522,60.428776 47.396030,60.188194 
	C46.016720,59.271725 44.894608,58.306545 43.438656,57.021164 
	C43.104816,56.700966 43.079712,56.561638 43.419228,56.446655 
	C44.844379,55.907978 45.930019,55.484276 47.330719,55.026031 
	C48.065308,54.943108 48.484837,54.894726 49.304066,54.900139 
	C51.823429,55.329754 53.943100,55.705574 56.062767,56.081398 
	C55.385658,57.479210 54.708546,58.877022 54.031414,60.621902 
z"/>
<path fill="#885B4D" opacity="1.000000" stroke="none" 
	d="
M56.440872,56.053307 
	C53.943100,55.705574 51.823429,55.329754 49.478798,54.657482 
	C49.864311,53.848476 50.474785,53.335918 51.447380,52.863289 
	C53.211948,52.608204 54.614395,52.313190 56.446030,52.026978 
	C58.596668,52.016144 60.318119,51.996521 62.039574,51.976894 
	C62.077900,52.366356 62.116230,52.755814 62.118710,53.436333 
	C60.328232,54.493332 58.573605,55.259274 56.440872,56.053307 
z"/>
<path fill="#917356" opacity="1.000000" stroke="none" 
	d="
M64.868835,32.793503 
	C65.641510,32.851788 66.414192,32.910072 67.573730,32.960976 
	C67.926720,34.485901 67.892845,36.018204 67.993729,37.859459 
	C67.610359,38.721462 67.092224,39.274513 66.196548,39.783981 
	C65.549934,39.851810 65.280869,39.963223 65.011795,40.074631 
	C65.011795,40.074631 65.010178,40.007835 64.644867,40.003723 
	C62.851425,40.361706 61.423298,40.723797 59.610580,41.081451 
	C58.200008,41.087112 57.174015,41.097210 55.859249,40.955563 
	C54.719559,39.878571 53.868645,38.953331 53.215031,37.916588 
	C53.666397,37.630314 53.860397,37.404053 54.408424,37.121628 
	C56.993401,36.870941 59.887421,37.967358 60.453781,34.128113 
	C61.116787,33.600971 61.504597,33.177502 62.263096,32.821289 
	C63.378803,32.856865 64.123817,32.825184 64.868835,32.793503 
z"/>
<path fill="#725947" opacity="1.000000" stroke="none" 
	d="
M59.995167,41.085892 
	C61.423298,40.723797 62.851425,40.361706 64.673065,40.021645 
	C64.806709,40.528599 64.546844,41.013527 64.154083,41.742302 
	C62.900490,42.234032 61.779797,42.481922 60.329769,42.538692 
	C59.998684,41.927013 59.996925,41.506454 59.995167,41.085892 
z"/>
<path fill="#725947" opacity="1.000000" stroke="none" 
	d="
M65.269745,40.101837 
	C65.280869,39.963223 65.549934,39.851810 65.928627,39.888733 
	C65.868065,40.067726 65.697884,40.098389 65.269745,40.101837 
z"/>
<path fill="#53483D" opacity="1.000000" stroke="none" 
	d="
M62.070683,51.670807 
	C60.318119,51.996521 58.596668,52.016144 56.447952,51.697079 
	C56.005215,50.919128 55.989738,50.479866 55.988304,49.762695 
	C56.006702,49.299320 56.011059,49.113861 56.417919,48.955387 
	C57.897816,48.985802 58.975208,48.989235 60.052597,48.992668 
	C60.570683,49.078339 61.088772,49.164009 61.974098,49.405640 
	C62.261494,50.162640 62.181644,50.763680 62.070683,51.670807 
z"/>
<path fill="#AC7D63" opacity="1.000000" stroke="none" 
	d="
M60.033279,48.627460 
	C58.975208,48.989235 57.897816,48.985802 56.417885,48.638641 
	C55.932083,47.663979 55.848816,47.033043 56.004402,46.164001 
	C56.477055,45.319290 56.710857,44.712681 57.282608,44.059998 
	C58.074680,44.022438 58.528812,44.030952 58.982941,44.039467 
	C59.326614,45.447063 59.670284,46.854656 60.033279,48.627460 
z"/>
<path fill="#564434" opacity="1.000000" stroke="none" 
	d="
M59.098709,43.815811 
	C58.528812,44.030952 58.074680,44.022438 57.091717,43.923450 
	C56.290520,43.672104 56.053406,43.469894 55.885010,42.904686 
	C55.918804,42.367420 55.919140,42.151821 55.968872,41.726860 
	C56.018272,41.517498 56.148026,41.107311 56.148026,41.107311 
	C57.174015,41.097210 58.200008,41.087112 59.610580,41.081451 
	C59.996925,41.506454 59.998684,41.927013 60.003532,42.663315 
	C59.742580,43.183422 59.478527,43.387787 59.098709,43.815811 
z"/>
<path fill="#4C3B26" opacity="1.000000" stroke="none" 
	d="
M51.991898,32.841343 
	C52.253033,32.095303 52.514164,31.349262 52.913124,30.336678 
	C54.477283,29.409338 55.903625,28.748541 57.798431,28.266138 
	C58.540066,28.631695 58.813232,28.818859 59.086403,29.006021 
	C59.086403,29.006021 59.134369,29.415190 58.885223,29.841019 
	C58.390282,30.883974 58.144493,31.501102 57.592216,32.138981 
	C56.846386,32.779690 56.407043,33.399647 55.842819,34.278790 
	C55.145100,35.025581 54.572262,35.513191 53.769531,35.984779 
	C53.539635,35.968765 53.078724,35.968456 53.022133,35.642536 
	C52.640991,34.491528 52.316444,33.666435 51.991898,32.841343 
z"/>
<path fill="#39372E" opacity="1.000000" stroke="none" 
	d="
M57.898705,32.118229 
	C58.144493,31.501102 58.390282,30.883974 58.899094,30.046534 
	C60.197010,29.866732 61.231911,29.907244 62.520195,30.235582 
	C62.479851,31.266949 62.186123,32.010490 61.892403,32.754032 
	C61.504597,33.177502 61.116787,33.600971 60.117222,34.053757 
	C59.051464,34.042873 58.597469,34.002670 58.098110,33.655251 
	C58.001400,32.938099 57.950050,32.528164 57.898705,32.118229 
z"/>
<path fill="#5A4C37" opacity="1.000000" stroke="none" 
	d="
M62.263092,32.821289 
	C62.186123,32.010490 62.479851,31.266949 62.910744,30.247318 
	C63.668640,30.697903 64.289368,31.424578 64.889465,32.472382 
	C64.123817,32.825184 63.378803,32.856865 62.263092,32.821289 
z"/>
<path fill="#5A4C37" opacity="1.000000" stroke="none" 
	d="
M59.281612,28.883675 
	C58.813232,28.818859 58.540066,28.631695 58.138618,28.229790 
	C58.010345,28.015051 58.445374,27.945301 58.662292,27.911728 
	C59.068153,27.906553 59.257095,27.934950 59.731361,27.991863 
	C59.894943,28.309786 59.714985,28.556770 59.281612,28.883675 
z"/>
<path fill="#B88564" opacity="1.000000" stroke="none" 
	d="
M43.005302,51.388161 
	C43.137363,50.697826 43.337620,50.435745 43.937592,50.378975 
	C44.854416,51.350780 45.438206,52.168236 45.863503,53.256344 
	C44.810257,53.946568 43.915504,54.366135 43.020748,54.785702 
	C43.016106,53.778954 43.011459,52.772202 43.005302,51.388161 
z"/>
<path fill="#735641" opacity="1.000000" stroke="none" 
	d="
M43.015198,55.210052 
	C43.915504,54.366135 44.810257,53.946568 46.099503,53.246361 
	C46.493992,52.965725 46.966602,52.949707 46.981102,53.301281 
	C47.002289,54.122097 47.008976,54.591335 47.015663,55.060577 
	C45.930019,55.484276 44.844379,55.907978 43.398270,56.407196 
	C43.028416,56.199944 43.019032,55.917175 43.015198,55.210052 
z"/>
<path fill="#BF906E" opacity="1.000000" stroke="none" 
	d="
M37.255512,48.830154 
	C36.983250,47.863583 37.005680,46.798576 37.053585,45.331039 
	C38.235939,45.124832 39.392815,45.321152 40.778786,46.010490 
	C41.007877,46.503506 40.987556,46.981670 40.832634,47.169846 
	C40.445721,47.593437 40.177040,47.774391 39.871674,47.900887 
	C39.097851,48.177830 38.324024,48.454777 37.255512,48.830154 
z"/>
<path fill="#7B5F48" opacity="1.000000" stroke="none" 
	d="
M39.910923,48.211540 
	C40.177040,47.774391 40.445721,47.593437 41.062981,47.350399 
	C41.625126,47.884968 41.802010,48.427162 41.978897,48.969353 
	C41.538986,49.006180 41.099075,49.043015 40.329494,49.113159 
	C39.983273,48.938381 39.966724,48.730289 39.910923,48.211540 
z"/>
<path fill="#A76D4B" opacity="1.000000" stroke="none" 
	d="
M46.966602,52.949707 
	C46.966602,52.949707 46.493992,52.965725 46.257996,52.975708 
	C45.438206,52.168236 44.854416,51.350780 44.153454,50.254128 
	C44.036278,49.974930 43.993492,49.518856 43.971027,49.278446 
	C43.948563,49.038036 43.990044,49.022099 44.308804,48.995949 
	C45.048496,48.899727 45.469433,48.829659 46.149620,48.860397 
	C46.589783,48.998188 46.770683,49.035183 46.966156,49.442558 
	C46.990414,50.557007 47.000103,51.301075 47.007576,52.271698 
	C47.005352,52.498249 46.966602,52.949707 46.966602,52.949707 
z"/>
<path fill="#99765C" opacity="1.000000" stroke="none" 
	d="
M42.246101,48.932217 
	C41.802010,48.427162 41.625126,47.884968 41.217899,47.162224 
	C40.987556,46.981670 41.007877,46.503506 41.025948,46.265198 
	C41.619827,46.250771 42.195637,46.474651 42.937092,47.164143 
	C43.102737,47.629753 43.005775,48.042858 43.014172,48.229771 
	C43.022568,48.416683 43.042591,48.790352 43.042591,48.790352 
	C42.866161,48.825260 42.689732,48.860172 42.246101,48.932217 
z"/>
<path fill="#A76D4B" opacity="1.000000" stroke="none" 
	d="
M43.261803,48.855759 
	C43.042591,48.790352 43.022568,48.416683 43.190102,48.379646 
	C43.563702,48.573517 43.774506,48.800011 43.990044,49.022099 
	C43.990044,49.022099 43.948563,49.038036 43.931499,49.052841 
	C43.914436,49.067650 43.481010,48.921162 43.261803,48.855759 
z"/>
<path fill="#D7A389" opacity="1.000000" stroke="none" 
	d="
M45.114819,43.041306 
	C45.344299,42.537819 45.573780,42.034328 46.272049,41.345341 
	C48.476711,41.798233 50.212574,42.436626 51.968445,43.490944 
	C52.064301,44.746189 52.140144,45.585510 52.010288,46.611023 
	C51.289703,46.993065 50.774822,47.188904 50.033325,47.084145 
	C48.880360,46.526825 47.954010,46.270103 47.012367,45.671692 
	C46.369659,44.567104 45.742237,43.804207 45.114819,43.041306 
z"/>
<path fill="#C7947C" opacity="1.000000" stroke="none" 
	d="
M51.948437,43.075020 
	C50.212574,42.436626 48.476711,41.798233 46.398849,41.097427 
	C46.026272,40.829002 45.995693,40.622990 46.094589,39.857834 
	C46.749523,38.964005 47.274971,38.629314 48.100304,38.501129 
	C49.234299,39.169193 50.068409,39.630749 50.969963,40.370670 
	C51.358543,41.113598 51.679680,41.578156 51.992210,42.300797 
	C51.971878,42.730930 51.960159,42.902977 51.948437,43.075020 
z"/>
<path fill="#E2B293" opacity="1.000000" stroke="none" 
	d="
M45.058258,43.401737 
	C45.742237,43.804207 46.369659,44.567104 46.882835,45.943550 
	C46.475849,47.291260 46.183109,48.025425 45.890366,48.759594 
	C45.469433,48.829659 45.048496,48.899727 44.308804,48.995949 
	C43.774506,48.800011 43.563702,48.573517 43.181705,48.192734 
	C43.005775,48.042858 43.102737,47.629753 43.124756,47.419975 
	C43.765087,46.060856 44.383392,44.911510 45.058258,43.401737 
z"/>
<path fill="#5A4938" opacity="1.000000" stroke="none" 
	d="
M47.800419,38.294624 
	C47.274971,38.629314 46.749523,38.964005 46.039055,39.550407 
	C45.115166,39.851906 44.376286,39.901695 43.269371,39.892067 
	C42.905922,39.136677 42.910511,38.440697 42.917618,37.396988 
	C43.685135,37.029503 44.450146,37.009747 45.596146,36.988258 
	C46.368958,37.191364 46.760777,37.396210 47.435745,37.807014 
	C47.718899,38.012978 47.800419,38.294624 47.800419,38.294624 
z"/>
<path fill="#5C4A3A" opacity="1.000000" stroke="none" 
	d="
M36.115578,38.251144 
	C36.158615,37.949245 36.611900,37.948170 36.838730,37.932198 
	C37.081818,38.325371 37.098072,38.734524 37.141167,39.447765 
	C36.802853,39.352253 36.437698,38.952648 36.115578,38.251144 
z"/>
<path fill="#6D645A" opacity="1.000000" stroke="none" 
	d="
M48.100304,38.501129 
	C47.800419,38.294624 47.718899,38.012978 47.648994,37.883297 
	C48.093952,36.745182 48.608814,35.736752 49.451420,34.688614 
	C50.519798,35.440990 51.260429,36.233067 52.005081,37.262901 
	C52.009102,37.500656 52.020000,37.976715 51.984482,38.288120 
	C51.600147,39.097118 51.251331,39.594707 50.902519,40.092300 
	C50.068409,39.630749 49.234299,39.169193 48.100304,38.501129 
z"/>
<path fill="#87755E" opacity="1.000000" stroke="none" 
	d="
M52.001064,37.025146 
	C51.260429,36.233067 50.519798,35.440990 49.633400,34.398098 
	C49.487640,34.147285 49.426128,33.831432 49.422951,33.673111 
	C50.057964,33.333855 50.696152,33.152920 51.663116,32.906666 
	C52.316444,33.666435 52.640991,34.491528 52.793694,35.764801 
	C52.414921,36.483707 52.207993,36.754429 52.001064,37.025146 
z"/>
<path fill="#5B4432" opacity="1.000000" stroke="none" 
	d="
M46.981102,53.301281 
	C46.966602,52.949707 47.005352,52.498249 47.340736,52.233269 
	C48.336563,51.895767 48.997009,51.823242 50.003506,51.828041 
	C50.581333,51.951859 50.813107,51.998352 51.051208,52.239670 
	C51.057537,52.434494 51.085258,52.823357 51.085258,52.823357 
	C50.474785,53.335918 49.864311,53.848476 49.079102,54.603683 
	C48.484837,54.894726 48.065308,54.943108 47.330719,55.026031 
	C47.008976,54.591335 47.002289,54.122097 46.981102,53.301281 
z"/>
<path fill="#42342A" opacity="1.000000" stroke="none" 
	d="
M51.447380,52.863289 
	C51.085258,52.823357 51.057537,52.434494 51.229763,51.932274 
	C52.926079,50.966904 54.450172,50.503754 55.974266,50.040604 
	C55.989738,50.479866 56.005215,50.919128 56.018768,51.688286 
	C54.614395,52.313190 53.211948,52.608204 51.447380,52.863289 
z"/>
<path fill="#6C5138" opacity="1.000000" stroke="none" 
	d="
M58.143471,33.962467 
	C58.597469,34.002670 59.051464,34.042873 59.842018,34.157433 
	C59.887421,37.967358 56.993401,36.870941 54.408466,36.839588 
	C53.996086,36.375080 53.997753,36.187939 53.999424,36.000797 
	C54.572262,35.513191 55.145100,35.025581 56.205318,34.275742 
	C57.176289,33.996498 57.659882,33.979481 58.143471,33.962467 
z"/>
<path fill="#837061" opacity="1.000000" stroke="none" 
	d="
M50.969959,40.370667 
	C51.251331,39.594707 51.600147,39.097118 52.233864,38.299625 
	C52.518772,37.999725 53.017727,38.028091 53.017727,38.028091 
	C53.868645,38.953331 54.719559,39.878571 55.859249,40.955563 
	C56.148026,41.107311 56.018272,41.517498 55.688610,41.766350 
	C54.909969,42.332512 54.460991,42.649822 53.747955,42.880638 
	C52.989536,42.543663 52.495178,42.293190 52.000816,42.042713 
	C51.679680,41.578156 51.358543,41.113598 50.969959,40.370667 
z"/>
<path fill="#7D6043" opacity="1.000000" stroke="none" 
	d="
M53.215031,37.916588 
	C53.017727,38.028091 52.518772,37.999725 52.269386,37.988220 
	C52.020000,37.976715 52.009102,37.500656 52.005081,37.262901 
	C52.207993,36.754429 52.414921,36.483707 52.850285,36.090721 
	C53.078724,35.968456 53.539635,35.968765 53.769531,35.984779 
	C53.997753,36.187939 53.996086,36.375080 53.994377,36.844261 
	C53.860397,37.404053 53.666397,37.630314 53.215031,37.916588 
z"/>
<path fill="#6E4B37" opacity="1.000000" stroke="none" 
	d="
M55.988304,49.762695 
	C54.450172,50.503754 52.926079,50.966904 51.223434,51.737450 
	C50.813107,51.998352 50.581333,51.951859 50.097122,51.484138 
	C49.863972,50.345608 49.883263,49.628300 49.980560,48.660057 
	C50.125694,48.067661 50.192818,47.726204 50.259941,47.384747 
	C50.774822,47.188904 51.289703,46.993065 52.363503,46.578831 
	C53.870132,46.374329 54.817844,46.388218 55.765553,46.402107 
	C55.848816,47.033043 55.932083,47.663979 56.015381,48.611660 
	C56.011059,49.113861 56.006702,49.299320 55.988304,49.762695 
z"/>
<path fill="#C6947E" opacity="1.000000" stroke="none" 
	d="
M56.004402,46.164001 
	C54.817844,46.388218 53.870132,46.374329 52.569206,46.392632 
	C52.140144,45.585510 52.064301,44.746189 51.968445,43.490944 
	C51.960159,42.902977 51.971878,42.730930 51.992210,42.300797 
	C52.495178,42.293190 52.989536,42.543663 54.050797,42.950104 
	C55.028980,43.146160 55.440262,43.186256 55.851543,43.226349 
	C56.053406,43.469894 56.290520,43.672104 56.753769,43.969524 
	C56.710857,44.712681 56.477055,45.319290 56.004402,46.164001 
z"/>
<path fill="#725947" opacity="1.000000" stroke="none" 
	d="
M55.885010,42.904686 
	C55.440262,43.186256 55.028980,43.146160 54.314857,43.036598 
	C54.460991,42.649822 54.909969,42.332512 55.639210,41.975712 
	C55.919140,42.151821 55.918804,42.367420 55.885010,42.904686 
z"/>
<path fill="#6A5F4D" opacity="1.000000" stroke="none" 
	d="
M58.098110,33.655251 
	C57.659882,33.979481 57.176289,33.996498 56.330200,34.016556 
	C56.407043,33.399647 56.846386,32.779690 57.592216,32.138981 
	C57.950050,32.528164 58.001400,32.938099 58.098110,33.655251 
z"/>
<path fill="#D49A73" opacity="1.000000" stroke="none" 
	d="
M50.033325,47.084145 
	C50.192818,47.726204 50.125694,48.067661 49.612919,48.665237 
	C48.428707,48.971634 47.690147,49.021904 46.951588,49.072178 
	C46.770683,49.035183 46.589783,48.998188 46.149620,48.860397 
	C46.183109,48.025425 46.475849,47.291260 46.898125,46.285236 
	C47.954010,46.270103 48.880360,46.526825 50.033325,47.084145 
z"/>
<path fill="#BE7C52" opacity="1.000000" stroke="none" 
	d="
M46.966156,49.442558 
	C47.690147,49.021904 48.428707,48.971634 49.534912,48.916176 
	C49.883263,49.628300 49.863972,50.345608 49.751068,51.406815 
	C48.997009,51.823242 48.336563,51.895767 47.342957,52.006721 
	C47.000103,51.301075 46.990414,50.557007 46.966156,49.442558 
z"/>
</svg>